<mxfile host="Electron" modified="2024-04-04T11:51:09.523Z" agent="Mozilla/5.0 (Windows NT 10.0; Win64; x64) AppleWebKit/537.36 (KHTML, like Gecko) draw.io/24.1.0 Chrome/120.0.6099.109 Electron/28.1.0 Safari/537.36" etag="QjFOBIOpbckC8Zsp-wd_" version="24.1.0" type="device">
  <diagram name="FLOWCHART" id="_SyIQTBnzG2JWo0JwZib">
    <mxGraphModel dx="2072" dy="2312" grid="0" gridSize="10" guides="1" tooltips="1" connect="1" arrows="1" fold="1" page="1" pageScale="1" pageWidth="850" pageHeight="1100" background="#FFFFFF" math="0" shadow="0">
      <root>
        <mxCell id="0" />
        <mxCell id="1" parent="0" />
        <mxCell id="_7ieRwts1pLUNNnIRrpb-142" value="" style="rounded=0;whiteSpace=wrap;html=1;opacity=15;fillColor=#66FFB3;strokeColor=#66FFB3;" parent="1" vertex="1">
          <mxGeometry x="6080" y="400" width="650" height="150" as="geometry" />
        </mxCell>
        <mxCell id="_7ieRwts1pLUNNnIRrpb-119" value="" style="rounded=0;whiteSpace=wrap;html=1;opacity=15;fillColor=#4D9900;strokeColor=#4D9900;" parent="1" vertex="1">
          <mxGeometry x="5345" y="540" width="460" height="150" as="geometry" />
        </mxCell>
        <mxCell id="_7ieRwts1pLUNNnIRrpb-107" value="" style="rounded=0;whiteSpace=wrap;html=1;opacity=15;fillColor=#66FFB3;strokeColor=#66FFB3;" parent="1" vertex="1">
          <mxGeometry x="5345" y="745" width="460" height="150" as="geometry" />
        </mxCell>
        <mxCell id="_7ieRwts1pLUNNnIRrpb-30" value="" style="rounded=0;whiteSpace=wrap;html=1;fillColor=#66FFB3;opacity=15;strokeColor=#B09500;fontColor=#000000;" parent="1" vertex="1">
          <mxGeometry x="6200" y="-215.5" width="390" height="150" as="geometry" />
        </mxCell>
        <mxCell id="5m1O86NGaFOG43O_L-Pf-7" value="" style="rounded=0;whiteSpace=wrap;html=1;fillColor=#00FF80;opacity=15;strokeColor=#B09500;fontColor=#000000;movable=0;" parent="1" vertex="1">
          <mxGeometry x="6000" y="-1040" width="760" height="790" as="geometry" />
        </mxCell>
        <mxCell id="fk4BfuyukFRPb7nqBHwW-318" value="" style="rounded=0;whiteSpace=wrap;html=1;fillColor=#66FFB3;opacity=15;strokeColor=#B09500;fontColor=#000000;" parent="1" vertex="1">
          <mxGeometry x="4575" y="-693.5" width="390" height="150" as="geometry" />
        </mxCell>
        <mxCell id="fk4BfuyukFRPb7nqBHwW-147" value="" style="rounded=0;whiteSpace=wrap;html=1;fillColor=#e3c800;opacity=15;strokeColor=#B09500;fontColor=#000000;" parent="1" vertex="1">
          <mxGeometry x="2027" y="-806.25" width="390" height="150" as="geometry" />
        </mxCell>
        <mxCell id="fk4BfuyukFRPb7nqBHwW-133" value="" style="rounded=0;whiteSpace=wrap;html=1;fillColor=#6a00ff;fontColor=#ffffff;strokeColor=#3700CC;opacity=15;" parent="1" vertex="1">
          <mxGeometry x="2030" y="-606.25" width="390" height="150" as="geometry" />
        </mxCell>
        <mxCell id="Ll0FbNr0BLSHcaz0i3VG-2" value="" style="rounded=0;whiteSpace=wrap;html=1;opacity=15;fillColor=#a20025;fontColor=#ffffff;strokeColor=#6F0000;" parent="1" vertex="1">
          <mxGeometry x="50" y="-450" width="150" height="430" as="geometry" />
        </mxCell>
        <mxCell id="4c7Zik1as252_9zJUMFA-1" value="" style="rounded=0;whiteSpace=wrap;html=1;fillColor=#60a917;fontColor=#ffffff;strokeColor=#2D7600;opacity=15;" parent="1" vertex="1">
          <mxGeometry x="50" y="-450" width="310" height="150" as="geometry" />
        </mxCell>
        <mxCell id="iaxnD8F6SxANwpRCkQcq-3" style="edgeStyle=orthogonalEdgeStyle;rounded=0;orthogonalLoop=1;jettySize=auto;html=1;exitX=0.5;exitY=1;exitDx=0;exitDy=0;entryX=0.5;entryY=0;entryDx=0;entryDy=0;" parent="1" source="Ll0FbNr0BLSHcaz0i3VG-1" target="Ll0FbNr0BLSHcaz0i3VG-3" edge="1">
          <mxGeometry relative="1" as="geometry" />
        </mxCell>
        <mxCell id="Ll0FbNr0BLSHcaz0i3VG-1" value="Start" style="ellipse;whiteSpace=wrap;html=1;" parent="1" vertex="1">
          <mxGeometry x="360" y="-1080" width="150" height="80" as="geometry" />
        </mxCell>
        <mxCell id="iaxnD8F6SxANwpRCkQcq-7" value="" style="edgeStyle=orthogonalEdgeStyle;rounded=0;orthogonalLoop=1;jettySize=auto;html=1;" parent="1" source="Ll0FbNr0BLSHcaz0i3VG-3" target="iaxnD8F6SxANwpRCkQcq-6" edge="1">
          <mxGeometry relative="1" as="geometry" />
        </mxCell>
        <mxCell id="Ll0FbNr0BLSHcaz0i3VG-3" value="Gate" style="shape=hexagon;perimeter=hexagonPerimeter2;whiteSpace=wrap;html=1;fixedSize=1;" parent="1" vertex="1">
          <mxGeometry x="70" y="-970" width="730" height="190" as="geometry" />
        </mxCell>
        <mxCell id="0tWUjPhN8xBiFnFYTwJi-20" style="edgeStyle=orthogonalEdgeStyle;rounded=0;orthogonalLoop=1;jettySize=auto;html=1;exitX=0.5;exitY=1;exitDx=0;exitDy=0;entryX=0.5;entryY=0;entryDx=0;entryDy=0;" parent="1" source="Ll0FbNr0BLSHcaz0i3VG-4" target="Ll0FbNr0BLSHcaz0i3VG-2" edge="1">
          <mxGeometry relative="1" as="geometry" />
        </mxCell>
        <mxCell id="Ll0FbNr0BLSHcaz0i3VG-4" value="INPUT&lt;div&gt;&lt;span style=&quot;background-color: initial;&quot;&gt;&lt;br&gt;&lt;/span&gt;&lt;/div&gt;&lt;div&gt;AUTH_GATE_STATS&lt;/div&gt;" style="shape=parallelogram;perimeter=parallelogramPerimeter;whiteSpace=wrap;html=1;fixedSize=1;" parent="1" vertex="1">
          <mxGeometry x="360" y="-670" width="150" height="60" as="geometry" />
        </mxCell>
        <mxCell id="iaxnD8F6SxANwpRCkQcq-5" value="END" style="ellipse;whiteSpace=wrap;html=1;" parent="1" vertex="1">
          <mxGeometry x="50" y="-110" width="150" height="80" as="geometry" />
        </mxCell>
        <mxCell id="iaxnD8F6SxANwpRCkQcq-8" value="" style="edgeStyle=orthogonalEdgeStyle;rounded=0;orthogonalLoop=1;jettySize=auto;html=1;" parent="1" source="iaxnD8F6SxANwpRCkQcq-6" target="Ll0FbNr0BLSHcaz0i3VG-4" edge="1">
          <mxGeometry relative="1" as="geometry" />
        </mxCell>
        <mxCell id="iaxnD8F6SxANwpRCkQcq-6" value="OUTPUT&lt;div&gt;&lt;span style=&quot;background-color: initial;&quot;&gt;&lt;br&gt;&lt;/span&gt;&lt;/div&gt;&lt;div&gt;GATE_ENTRANCE&lt;/div&gt;" style="shape=parallelogram;perimeter=parallelogramPerimeter;whiteSpace=wrap;html=1;fixedSize=1;" parent="1" vertex="1">
          <mxGeometry x="360" y="-760" width="150" height="60" as="geometry" />
        </mxCell>
        <mxCell id="0tWUjPhN8xBiFnFYTwJi-13" value="N" style="edgeStyle=orthogonalEdgeStyle;rounded=0;orthogonalLoop=1;jettySize=auto;html=1;exitX=0.5;exitY=1;exitDx=0;exitDy=0;entryX=0.5;entryY=0;entryDx=0;entryDy=0;" parent="1" source="iaxnD8F6SxANwpRCkQcq-9" target="iaxnD8F6SxANwpRCkQcq-5" edge="1">
          <mxGeometry relative="1" as="geometry">
            <mxPoint x="300.00000000000045" y="530" as="targetPoint" />
          </mxGeometry>
        </mxCell>
        <mxCell id="0tWUjPhN8xBiFnFYTwJi-19" value="ERROR" style="edgeStyle=orthogonalEdgeStyle;rounded=0;orthogonalLoop=1;jettySize=auto;html=1;exitX=0;exitY=0.5;exitDx=0;exitDy=0;entryX=0;entryY=0.5;entryDx=0;entryDy=0;" parent="1" source="iaxnD8F6SxANwpRCkQcq-9" target="Ll0FbNr0BLSHcaz0i3VG-4" edge="1">
          <mxGeometry x="-0.0003" relative="1" as="geometry">
            <Array as="points">
              <mxPoint x="30" y="-375" />
              <mxPoint x="30" y="-640" />
            </Array>
            <mxPoint as="offset" />
          </mxGeometry>
        </mxCell>
        <mxCell id="iaxnD8F6SxANwpRCkQcq-9" value="AUTH_GATE_STATS" style="rhombus;whiteSpace=wrap;html=1;" parent="1" vertex="1">
          <mxGeometry x="50" y="-450" width="150" height="150" as="geometry" />
        </mxCell>
        <mxCell id="0tWUjPhN8xBiFnFYTwJi-15" value="" style="shape=waypoint;sketch=0;size=6;pointerEvents=1;points=[];fillColor=#60a917;resizable=0;rotatable=0;perimeter=centerPerimeter;snapToPoint=1;fontColor=#ffffff;strokeColor=#2D7600;" parent="1" vertex="1">
          <mxGeometry x="310" y="-385" width="20" height="20" as="geometry" />
        </mxCell>
        <mxCell id="fk4BfuyukFRPb7nqBHwW-46" value="MAIN GATE" style="text;html=1;align=center;verticalAlign=middle;resizable=0;points=[];autosize=1;strokeColor=none;fillColor=none;" parent="1" vertex="1">
          <mxGeometry x="735" y="-1070" width="90" height="30" as="geometry" />
        </mxCell>
        <mxCell id="fk4BfuyukFRPb7nqBHwW-47" value="CINEMA MENU" style="text;html=1;align=center;verticalAlign=middle;resizable=0;points=[];autosize=1;strokeColor=none;fillColor=none;" parent="1" vertex="1">
          <mxGeometry x="1560" y="-1070" width="110" height="30" as="geometry" />
        </mxCell>
        <mxCell id="fk4BfuyukFRPb7nqBHwW-68" value="E" style="edgeStyle=orthogonalEdgeStyle;rounded=0;orthogonalLoop=1;jettySize=auto;html=1;fillColor=#e51400;strokeColor=#B20000;" parent="1" source="fk4BfuyukFRPb7nqBHwW-65" target="fk4BfuyukFRPb7nqBHwW-66" edge="1">
          <mxGeometry relative="1" as="geometry" />
        </mxCell>
        <mxCell id="fk4BfuyukFRPb7nqBHwW-65" value="" style="shape=waypoint;sketch=0;size=6;pointerEvents=1;points=[];fillColor=#e51400;resizable=0;rotatable=0;perimeter=centerPerimeter;snapToPoint=1;fontColor=#ffffff;strokeColor=#B20000;" parent="1" vertex="1">
          <mxGeometry x="310" y="-266.5" width="20" height="20" as="geometry" />
        </mxCell>
        <mxCell id="fk4BfuyukFRPb7nqBHwW-67" style="edgeStyle=orthogonalEdgeStyle;rounded=0;orthogonalLoop=1;jettySize=auto;html=1;exitX=0.5;exitY=1;exitDx=0;exitDy=0;entryX=1;entryY=0.5;entryDx=0;entryDy=0;" parent="1" source="fk4BfuyukFRPb7nqBHwW-66" target="iaxnD8F6SxANwpRCkQcq-5" edge="1">
          <mxGeometry relative="1" as="geometry" />
        </mxCell>
        <mxCell id="fk4BfuyukFRPb7nqBHwW-66" value="OUTPUT&lt;div&gt;&lt;span style=&quot;background-color: initial;&quot;&gt;&lt;br&gt;&lt;/span&gt;&lt;/div&gt;&lt;div&gt;GOODBYE&lt;/div&gt;" style="shape=parallelogram;perimeter=parallelogramPerimeter;whiteSpace=wrap;html=1;fixedSize=1;" parent="1" vertex="1">
          <mxGeometry x="245" y="-200" width="150" height="60" as="geometry" />
        </mxCell>
        <mxCell id="fk4BfuyukFRPb7nqBHwW-89" value="MOVIE POSTER" style="text;html=1;align=center;verticalAlign=middle;resizable=0;points=[];autosize=1;strokeColor=none;fillColor=none;" parent="1" vertex="1">
          <mxGeometry x="2400" y="-1070" width="110" height="30" as="geometry" />
        </mxCell>
        <mxCell id="fk4BfuyukFRPb7nqBHwW-123" value="" style="rounded=0;whiteSpace=wrap;html=1;fillColor=#60a917;fontColor=#ffffff;strokeColor=#2D7600;opacity=15;" parent="1" vertex="1">
          <mxGeometry x="2030" y="-197" width="390" height="150" as="geometry" />
        </mxCell>
        <mxCell id="fk4BfuyukFRPb7nqBHwW-53" value="" style="edgeStyle=orthogonalEdgeStyle;rounded=0;orthogonalLoop=1;jettySize=auto;html=1;fillColor=#0050ef;strokeColor=#001DBC;" parent="1" source="fk4BfuyukFRPb7nqBHwW-48" target="fk4BfuyukFRPb7nqBHwW-52" edge="1">
          <mxGeometry relative="1" as="geometry" />
        </mxCell>
        <mxCell id="fk4BfuyukFRPb7nqBHwW-48" value="" style="shape=waypoint;sketch=0;size=6;pointerEvents=1;points=[];fillColor=#0050ef;resizable=0;rotatable=0;perimeter=centerPerimeter;snapToPoint=1;fontColor=#ffffff;strokeColor=#001DBC;" parent="1" vertex="1">
          <mxGeometry x="2095" y="-1052" width="20" height="20" as="geometry" />
        </mxCell>
        <mxCell id="fk4BfuyukFRPb7nqBHwW-74" style="edgeStyle=orthogonalEdgeStyle;rounded=0;orthogonalLoop=1;jettySize=auto;html=1;entryX=0.5;entryY=0;entryDx=0;entryDy=0;" parent="1" source="fk4BfuyukFRPb7nqBHwW-52" target="fk4BfuyukFRPb7nqBHwW-73" edge="1">
          <mxGeometry relative="1" as="geometry" />
        </mxCell>
        <mxCell id="fk4BfuyukFRPb7nqBHwW-52" value="OUTPUT&lt;div&gt;&lt;br&gt;&lt;/div&gt;&lt;div&gt;MOVIE_POSTER&lt;/div&gt;" style="shape=parallelogram;perimeter=parallelogramPerimeter;whiteSpace=wrap;html=1;fixedSize=1;" parent="1" vertex="1">
          <mxGeometry x="2030" y="-1016.25" width="150" height="59.25" as="geometry" />
        </mxCell>
        <mxCell id="fk4BfuyukFRPb7nqBHwW-79" style="edgeStyle=orthogonalEdgeStyle;rounded=0;orthogonalLoop=1;jettySize=auto;html=1;exitX=0.5;exitY=1;exitDx=0;exitDy=0;entryX=0.5;entryY=0;entryDx=0;entryDy=0;" parent="1" source="fk4BfuyukFRPb7nqBHwW-73" target="fk4BfuyukFRPb7nqBHwW-76" edge="1">
          <mxGeometry relative="1" as="geometry" />
        </mxCell>
        <mxCell id="fk4BfuyukFRPb7nqBHwW-73" value="INPUT&lt;div&gt;&lt;br&gt;&lt;/div&gt;&lt;div&gt;MOVIE_CAT&lt;/div&gt;" style="shape=parallelogram;perimeter=parallelogramPerimeter;whiteSpace=wrap;html=1;fixedSize=1;strokeColor=#FFFFFF;" parent="1" vertex="1">
          <mxGeometry x="2030" y="-906.25" width="150" height="60" as="geometry" />
        </mxCell>
        <mxCell id="fk4BfuyukFRPb7nqBHwW-80" style="edgeStyle=orthogonalEdgeStyle;rounded=0;orthogonalLoop=1;jettySize=auto;html=1;exitX=0.5;exitY=1;exitDx=0;exitDy=0;entryX=0.5;entryY=0;entryDx=0;entryDy=0;" parent="1" source="fk4BfuyukFRPb7nqBHwW-76" target="fk4BfuyukFRPb7nqBHwW-77" edge="1">
          <mxGeometry relative="1" as="geometry" />
        </mxCell>
        <mxCell id="fk4BfuyukFRPb7nqBHwW-86" style="edgeStyle=orthogonalEdgeStyle;rounded=0;orthogonalLoop=1;jettySize=auto;html=1;fillColor=#e3c800;strokeColor=#B09500;" parent="1" source="fk4BfuyukFRPb7nqBHwW-76" target="fk4BfuyukFRPb7nqBHwW-137" edge="1">
          <mxGeometry relative="1" as="geometry">
            <mxPoint x="2280" y="-731.25" as="targetPoint" />
          </mxGeometry>
        </mxCell>
        <mxCell id="fk4BfuyukFRPb7nqBHwW-76" value="MOVIE_CAT" style="rhombus;whiteSpace=wrap;html=1;" parent="1" vertex="1">
          <mxGeometry x="2030" y="-806.25" width="150" height="150" as="geometry" />
        </mxCell>
        <mxCell id="fk4BfuyukFRPb7nqBHwW-81" style="edgeStyle=orthogonalEdgeStyle;rounded=0;orthogonalLoop=1;jettySize=auto;html=1;exitX=0.5;exitY=1;exitDx=0;exitDy=0;entryX=0.5;entryY=0;entryDx=0;entryDy=0;" parent="1" source="fk4BfuyukFRPb7nqBHwW-77" target="fk4BfuyukFRPb7nqBHwW-78" edge="1">
          <mxGeometry relative="1" as="geometry" />
        </mxCell>
        <mxCell id="fk4BfuyukFRPb7nqBHwW-87" style="edgeStyle=orthogonalEdgeStyle;rounded=0;orthogonalLoop=1;jettySize=auto;html=1;exitX=1;exitY=0.5;exitDx=0;exitDy=0;" parent="1" source="fk4BfuyukFRPb7nqBHwW-77" edge="1">
          <mxGeometry relative="1" as="geometry">
            <mxPoint x="2270" y="-531" as="targetPoint" />
          </mxGeometry>
        </mxCell>
        <mxCell id="fk4BfuyukFRPb7nqBHwW-77" value="MOVIE_CAT" style="rhombus;whiteSpace=wrap;html=1;" parent="1" vertex="1">
          <mxGeometry x="2030" y="-606.25" width="150" height="150" as="geometry" />
        </mxCell>
        <mxCell id="fk4BfuyukFRPb7nqBHwW-88" style="edgeStyle=orthogonalEdgeStyle;rounded=0;orthogonalLoop=1;jettySize=auto;html=1;exitX=1;exitY=0.5;exitDx=0;exitDy=0;entryX=0;entryY=0.5;entryDx=0;entryDy=0;" parent="1" source="fk4BfuyukFRPb7nqBHwW-78" edge="1">
          <mxGeometry relative="1" as="geometry">
            <mxPoint x="2280" y="-331.25" as="targetPoint" />
          </mxGeometry>
        </mxCell>
        <mxCell id="fk4BfuyukFRPb7nqBHwW-112" style="edgeStyle=orthogonalEdgeStyle;rounded=0;orthogonalLoop=1;jettySize=auto;html=1;exitX=0.5;exitY=1;exitDx=0;exitDy=0;entryX=0.5;entryY=0;entryDx=0;entryDy=0;" parent="1" source="fk4BfuyukFRPb7nqBHwW-78" target="fk4BfuyukFRPb7nqBHwW-111" edge="1">
          <mxGeometry relative="1" as="geometry" />
        </mxCell>
        <mxCell id="fk4BfuyukFRPb7nqBHwW-78" value="MOVIE_CAT" style="rhombus;whiteSpace=wrap;html=1;" parent="1" vertex="1">
          <mxGeometry x="2030" y="-406.25" width="150" height="150" as="geometry" />
        </mxCell>
        <mxCell id="fk4BfuyukFRPb7nqBHwW-113" value="DEFAULT" style="edgeStyle=orthogonalEdgeStyle;rounded=0;orthogonalLoop=1;jettySize=auto;html=1;exitX=0.5;exitY=1;exitDx=0;exitDy=0;entryX=0.75;entryY=1;entryDx=0;entryDy=0;" parent="1" source="fk4BfuyukFRPb7nqBHwW-111" target="fk4BfuyukFRPb7nqBHwW-114" edge="1">
          <mxGeometry relative="1" as="geometry">
            <mxPoint x="1890" y="-377" as="targetPoint" />
          </mxGeometry>
        </mxCell>
        <mxCell id="fk4BfuyukFRPb7nqBHwW-111" value="MOVIE_CAT" style="rhombus;whiteSpace=wrap;html=1;" parent="1" vertex="1">
          <mxGeometry x="2030" y="-197" width="150" height="150" as="geometry" />
        </mxCell>
        <mxCell id="fk4BfuyukFRPb7nqBHwW-115" style="edgeStyle=orthogonalEdgeStyle;rounded=0;orthogonalLoop=1;jettySize=auto;html=1;exitX=0.5;exitY=0;exitDx=0;exitDy=0;entryX=0;entryY=0.5;entryDx=0;entryDy=0;" parent="1" source="fk4BfuyukFRPb7nqBHwW-114" target="fk4BfuyukFRPb7nqBHwW-52" edge="1">
          <mxGeometry relative="1" as="geometry">
            <Array as="points">
              <mxPoint x="1895" y="-986.25" />
            </Array>
          </mxGeometry>
        </mxCell>
        <mxCell id="fk4BfuyukFRPb7nqBHwW-114" value="&lt;span style=&quot;font-weight: normal;&quot;&gt;CLEAR_SCREEN&lt;/span&gt;" style="rounded=0;whiteSpace=wrap;html=1;fontStyle=1" parent="1" vertex="1">
          <mxGeometry x="1820" y="-557.75" width="150" height="60" as="geometry" />
        </mxCell>
        <mxCell id="fk4BfuyukFRPb7nqBHwW-121" value="" style="shape=waypoint;sketch=0;size=6;pointerEvents=1;points=[];fillColor=#60a917;resizable=0;rotatable=0;perimeter=centerPerimeter;snapToPoint=1;fontColor=#ffffff;strokeColor=#2D7600;" parent="1" vertex="1">
          <mxGeometry x="2335" y="-132" width="20" height="20" as="geometry" />
        </mxCell>
        <mxCell id="fk4BfuyukFRPb7nqBHwW-122" value="B" style="edgeStyle=orthogonalEdgeStyle;rounded=0;orthogonalLoop=1;jettySize=auto;html=1;exitX=1;exitY=0.5;exitDx=0;exitDy=0;entryX=0.479;entryY=0.886;entryDx=0;entryDy=0;entryPerimeter=0;fillColor=#60a917;strokeColor=#2D7600;" parent="1" source="fk4BfuyukFRPb7nqBHwW-111" target="fk4BfuyukFRPb7nqBHwW-121" edge="1">
          <mxGeometry relative="1" as="geometry" />
        </mxCell>
        <mxCell id="fk4BfuyukFRPb7nqBHwW-128" value="BACK / UNDO" style="text;html=1;align=center;verticalAlign=middle;whiteSpace=wrap;rounded=0;" parent="1" vertex="1">
          <mxGeometry x="2180" y="-175" width="237" height="30" as="geometry" />
        </mxCell>
        <mxCell id="fk4BfuyukFRPb7nqBHwW-135" value="Y" style="edgeStyle=orthogonalEdgeStyle;rounded=0;orthogonalLoop=1;jettySize=auto;html=1;exitX=1;exitY=0.5;exitDx=0;exitDy=0;entryX=0.763;entryY=0.586;entryDx=0;entryDy=0;entryPerimeter=0;fillColor=#60a917;strokeColor=#2D7600;" parent="1" source="iaxnD8F6SxANwpRCkQcq-9" target="0tWUjPhN8xBiFnFYTwJi-15" edge="1">
          <mxGeometry relative="1" as="geometry" />
        </mxCell>
        <mxCell id="fk4BfuyukFRPb7nqBHwW-137" value="" style="shape=waypoint;sketch=0;size=6;pointerEvents=1;points=[];fillColor=#e3c800;resizable=0;rotatable=0;perimeter=centerPerimeter;snapToPoint=1;strokeColor=#B09500;fontColor=#000000;" parent="1" vertex="1">
          <mxGeometry x="2350" y="-741.25" width="20" height="20" as="geometry" />
        </mxCell>
        <mxCell id="fk4BfuyukFRPb7nqBHwW-139" value="GENRE FILTER" style="text;html=1;align=center;verticalAlign=middle;resizable=0;points=[];autosize=1;strokeColor=none;fillColor=none;" parent="1" vertex="1">
          <mxGeometry x="2210" y="-587.75" width="110" height="30" as="geometry" />
        </mxCell>
        <mxCell id="fk4BfuyukFRPb7nqBHwW-140" value="AGE FILTER" style="text;html=1;align=center;verticalAlign=middle;resizable=0;points=[];autosize=1;strokeColor=none;fillColor=none;" parent="1" vertex="1">
          <mxGeometry x="2220" y="-395" width="90" height="30" as="geometry" />
        </mxCell>
        <mxCell id="fk4BfuyukFRPb7nqBHwW-141" value="MOVIE SELECT" style="text;html=1;align=center;verticalAlign=middle;resizable=0;points=[];autosize=1;strokeColor=none;fillColor=none;" parent="1" vertex="1">
          <mxGeometry x="2205" y="-792" width="110" height="30" as="geometry" />
        </mxCell>
        <mxCell id="fk4BfuyukFRPb7nqBHwW-153" value="MOVIE SELECTION" style="text;html=1;align=center;verticalAlign=middle;resizable=0;points=[];autosize=1;strokeColor=none;fillColor=none;" parent="1" vertex="1">
          <mxGeometry x="3240" y="-1070" width="130" height="30" as="geometry" />
        </mxCell>
        <mxCell id="fk4BfuyukFRPb7nqBHwW-198" value="MOVIE CONFIRM" style="text;html=1;align=center;verticalAlign=middle;resizable=0;points=[];autosize=1;strokeColor=none;fillColor=none;" parent="1" vertex="1">
          <mxGeometry x="4085" y="-1070" width="120" height="30" as="geometry" />
        </mxCell>
        <mxCell id="fk4BfuyukFRPb7nqBHwW-50" value="" style="rounded=0;whiteSpace=wrap;html=1;fillColor=#a20025;fontColor=#ffffff;strokeColor=#6F0000;opacity=15;glass=0;fontStyle=4" parent="1" vertex="1">
          <mxGeometry x="1129" y="-439.5" width="390" height="150" as="geometry" />
        </mxCell>
        <mxCell id="fk4BfuyukFRPb7nqBHwW-49" value="" style="rounded=0;whiteSpace=wrap;html=1;fillColor=#0050ef;fontColor=#ffffff;strokeColor=#001DBC;opacity=15;fontStyle=4" parent="1" vertex="1">
          <mxGeometry x="1129" y="-639.5" width="390" height="150" as="geometry" />
        </mxCell>
        <mxCell id="fk4BfuyukFRPb7nqBHwW-31" style="edgeStyle=orthogonalEdgeStyle;rounded=0;orthogonalLoop=1;jettySize=auto;html=1;entryX=0.5;entryY=0;entryDx=0;entryDy=0;fillColor=#60a917;strokeColor=#2D7600;fontStyle=4" parent="1" source="crYka2N7SXxKaLOjOpeC-2" target="crYka2N7SXxKaLOjOpeC-4" edge="1">
          <mxGeometry relative="1" as="geometry" />
        </mxCell>
        <mxCell id="crYka2N7SXxKaLOjOpeC-2" value="" style="shape=waypoint;sketch=0;size=6;pointerEvents=1;points=[];fillColor=#60a917;resizable=0;rotatable=0;perimeter=centerPerimeter;snapToPoint=1;fontColor=#ffffff;strokeColor=#2D7600;fontStyle=4" parent="1" vertex="1">
          <mxGeometry x="1202" y="-947" width="20" height="20" as="geometry" />
        </mxCell>
        <mxCell id="fk4BfuyukFRPb7nqBHwW-21" style="edgeStyle=orthogonalEdgeStyle;rounded=0;orthogonalLoop=1;jettySize=auto;html=1;exitX=0.5;exitY=1;exitDx=0;exitDy=0;entryX=0.5;entryY=0;entryDx=0;entryDy=0;fontStyle=4" parent="1" source="crYka2N7SXxKaLOjOpeC-4" target="crYka2N7SXxKaLOjOpeC-6" edge="1">
          <mxGeometry relative="1" as="geometry" />
        </mxCell>
        <mxCell id="crYka2N7SXxKaLOjOpeC-4" value="OUTPUT&lt;div&gt;&lt;br&gt;&lt;/div&gt;&lt;div&gt;WELCOME SCREEN&lt;/div&gt;" style="shape=parallelogram;perimeter=parallelogramPerimeter;whiteSpace=wrap;html=1;fixedSize=1;fontStyle=4" parent="1" vertex="1">
          <mxGeometry x="1137" y="-879.5" width="150" height="60" as="geometry" />
        </mxCell>
        <mxCell id="fk4BfuyukFRPb7nqBHwW-4" value="" style="edgeStyle=orthogonalEdgeStyle;rounded=0;orthogonalLoop=1;jettySize=auto;html=1;fontStyle=4" parent="1" source="crYka2N7SXxKaLOjOpeC-6" target="crYka2N7SXxKaLOjOpeC-7" edge="1">
          <mxGeometry relative="1" as="geometry" />
        </mxCell>
        <mxCell id="crYka2N7SXxKaLOjOpeC-6" value="INPUT&lt;div&gt;&lt;br&gt;&lt;/div&gt;&lt;div&gt;CMENU_CAT&lt;/div&gt;" style="shape=parallelogram;perimeter=parallelogramPerimeter;whiteSpace=wrap;html=1;fixedSize=1;strokeColor=#FFFFFF;fontStyle=4" parent="1" vertex="1">
          <mxGeometry x="1137" y="-759.5" width="150" height="60" as="geometry" />
        </mxCell>
        <mxCell id="fk4BfuyukFRPb7nqBHwW-5" value="" style="edgeStyle=orthogonalEdgeStyle;rounded=0;orthogonalLoop=1;jettySize=auto;html=1;fontStyle=4" parent="1" source="crYka2N7SXxKaLOjOpeC-7" target="crYka2N7SXxKaLOjOpeC-8" edge="1">
          <mxGeometry relative="1" as="geometry" />
        </mxCell>
        <mxCell id="fk4BfuyukFRPb7nqBHwW-42" value="S" style="edgeStyle=orthogonalEdgeStyle;rounded=0;orthogonalLoop=1;jettySize=auto;html=1;fillColor=#0050ef;strokeColor=#001DBC;fontStyle=4" parent="1" source="crYka2N7SXxKaLOjOpeC-7" target="fk4BfuyukFRPb7nqBHwW-41" edge="1">
          <mxGeometry relative="1" as="geometry" />
        </mxCell>
        <mxCell id="crYka2N7SXxKaLOjOpeC-7" value="CMENU_CAT" style="rhombus;whiteSpace=wrap;html=1;fontStyle=4" parent="1" vertex="1">
          <mxGeometry x="1137" y="-639.5" width="150" height="150" as="geometry" />
        </mxCell>
        <mxCell id="fk4BfuyukFRPb7nqBHwW-6" value="" style="edgeStyle=orthogonalEdgeStyle;rounded=0;orthogonalLoop=1;jettySize=auto;html=1;entryX=0.5;entryY=0;entryDx=0;entryDy=0;fontStyle=4" parent="1" source="crYka2N7SXxKaLOjOpeC-8" target="fk4BfuyukFRPb7nqBHwW-237" edge="1">
          <mxGeometry relative="1" as="geometry">
            <mxPoint x="1212" y="-182" as="targetPoint" />
          </mxGeometry>
        </mxCell>
        <mxCell id="fk4BfuyukFRPb7nqBHwW-107" value="DEFAULT" style="edgeLabel;html=1;align=center;verticalAlign=middle;resizable=0;points=[];fontStyle=4" parent="fk4BfuyukFRPb7nqBHwW-6" vertex="1" connectable="0">
          <mxGeometry x="-0.1279" y="5" relative="1" as="geometry">
            <mxPoint as="offset" />
          </mxGeometry>
        </mxCell>
        <mxCell id="fk4BfuyukFRPb7nqBHwW-45" value="E" style="edgeStyle=orthogonalEdgeStyle;rounded=0;orthogonalLoop=1;jettySize=auto;html=1;fillColor=#e51400;strokeColor=#B20000;fontStyle=4" parent="1" source="crYka2N7SXxKaLOjOpeC-8" target="fk4BfuyukFRPb7nqBHwW-43" edge="1">
          <mxGeometry relative="1" as="geometry" />
        </mxCell>
        <mxCell id="crYka2N7SXxKaLOjOpeC-8" value="CMENU_CAT" style="rhombus;whiteSpace=wrap;html=1;fontStyle=4" parent="1" vertex="1">
          <mxGeometry x="1137" y="-439.5" width="150" height="150" as="geometry" />
        </mxCell>
        <mxCell id="fk4BfuyukFRPb7nqBHwW-27" value="MOVIE POSTER" style="text;html=1;align=center;verticalAlign=middle;whiteSpace=wrap;rounded=0;fontStyle=4" parent="1" vertex="1">
          <mxGeometry x="1292" y="-618" width="217" height="30" as="geometry" />
        </mxCell>
        <mxCell id="fk4BfuyukFRPb7nqBHwW-29" value="EXIT" style="text;html=1;align=center;verticalAlign=middle;whiteSpace=wrap;rounded=0;fontStyle=4" parent="1" vertex="1">
          <mxGeometry x="1282" y="-428" width="237" height="30" as="geometry" />
        </mxCell>
        <mxCell id="fk4BfuyukFRPb7nqBHwW-41" value="" style="shape=waypoint;sketch=0;size=6;pointerEvents=1;points=[];fillColor=#0050ef;resizable=0;rotatable=0;perimeter=centerPerimeter;snapToPoint=1;fontColor=#ffffff;strokeColor=#001DBC;fontStyle=4" parent="1" vertex="1">
          <mxGeometry x="1459" y="-574.5" width="20" height="20" as="geometry" />
        </mxCell>
        <mxCell id="fk4BfuyukFRPb7nqBHwW-43" value="" style="shape=waypoint;sketch=0;size=6;pointerEvents=1;points=[];fillColor=#e51400;resizable=0;rotatable=0;perimeter=centerPerimeter;snapToPoint=1;fontColor=#ffffff;strokeColor=#B20000;fontStyle=4" parent="1" vertex="1">
          <mxGeometry x="1459" y="-374.5" width="20" height="20" as="geometry" />
        </mxCell>
        <mxCell id="fk4BfuyukFRPb7nqBHwW-238" value="" style="edgeStyle=orthogonalEdgeStyle;rounded=0;orthogonalLoop=1;jettySize=auto;html=1;entryX=0;entryY=0.5;entryDx=0;entryDy=0;exitX=0;exitY=0.5;exitDx=0;exitDy=0;fontStyle=4" parent="1" source="fk4BfuyukFRPb7nqBHwW-237" target="crYka2N7SXxKaLOjOpeC-4" edge="1">
          <mxGeometry relative="1" as="geometry">
            <Array as="points">
              <mxPoint x="1031" y="-182" />
              <mxPoint x="1031" y="-849" />
            </Array>
          </mxGeometry>
        </mxCell>
        <mxCell id="fk4BfuyukFRPb7nqBHwW-237" value="&lt;span style=&quot;font-weight: normal;&quot;&gt;CLEAR_MESSAGE&lt;/span&gt;" style="rounded=0;whiteSpace=wrap;html=1;fontStyle=5" parent="1" vertex="1">
          <mxGeometry x="1137" y="-212" width="150" height="60" as="geometry" />
        </mxCell>
        <mxCell id="fk4BfuyukFRPb7nqBHwW-242" value="B" style="edgeStyle=orthogonalEdgeStyle;rounded=0;orthogonalLoop=1;jettySize=auto;html=1;entryX=1;entryY=0.5;entryDx=0;entryDy=0;fillColor=#60a917;strokeColor=#2D7600;fontStyle=4" parent="1" source="fk4BfuyukFRPb7nqBHwW-241" target="fk4BfuyukFRPb7nqBHwW-237" edge="1">
          <mxGeometry relative="1" as="geometry">
            <mxPoint x="1287" y="-91.99999999999977" as="targetPoint" />
          </mxGeometry>
        </mxCell>
        <mxCell id="fk4BfuyukFRPb7nqBHwW-241" value="" style="shape=waypoint;sketch=0;size=6;pointerEvents=1;points=[];fillColor=#60a917;resizable=0;rotatable=0;perimeter=centerPerimeter;snapToPoint=1;fontColor=#ffffff;strokeColor=#2D7600;fontStyle=4" parent="1" vertex="1">
          <mxGeometry x="1459" y="-192" width="20" height="20" as="geometry" />
        </mxCell>
        <mxCell id="fk4BfuyukFRPb7nqBHwW-263" value="B" style="edgeStyle=orthogonalEdgeStyle;rounded=0;orthogonalLoop=1;jettySize=auto;html=1;entryX=0.25;entryY=1;entryDx=0;entryDy=0;exitX=0.633;exitY=0.933;exitDx=0;exitDy=0;exitPerimeter=0;fillColor=#0050ef;strokeColor=#001DBC;" parent="1" source="fk4BfuyukFRPb7nqBHwW-262" target="fk4BfuyukFRPb7nqBHwW-114" edge="1">
          <mxGeometry relative="1" as="geometry" />
        </mxCell>
        <mxCell id="fk4BfuyukFRPb7nqBHwW-262" value="" style="shape=waypoint;sketch=0;size=6;pointerEvents=1;points=[];fillColor=#0050ef;resizable=0;rotatable=0;perimeter=centerPerimeter;snapToPoint=1;fontColor=#ffffff;strokeColor=#001DBC;fontStyle=4" parent="1" vertex="1">
          <mxGeometry x="1760" y="-192" width="20" height="20" as="geometry" />
        </mxCell>
        <mxCell id="fk4BfuyukFRPb7nqBHwW-283" value="FLOOR PLAN" style="text;html=1;align=center;verticalAlign=middle;resizable=0;points=[];autosize=1;strokeColor=none;fillColor=none;" parent="1" vertex="1">
          <mxGeometry x="4950" y="-1070" width="100" height="30" as="geometry" />
        </mxCell>
        <mxCell id="fk4BfuyukFRPb7nqBHwW-303" value="" style="rounded=0;whiteSpace=wrap;html=1;fillColor=#e3c800;opacity=15;strokeColor=#B09500;fontColor=#000000;" parent="1" vertex="1">
          <mxGeometry x="4575" y="-493.5" width="390" height="150" as="geometry" />
        </mxCell>
        <mxCell id="fk4BfuyukFRPb7nqBHwW-287" style="edgeStyle=orthogonalEdgeStyle;rounded=0;orthogonalLoop=1;jettySize=auto;html=1;entryX=0.5;entryY=0;entryDx=0;entryDy=0;fillColor=#d80073;strokeColor=#A50040;" parent="1" source="fk4BfuyukFRPb7nqBHwW-281" target="fk4BfuyukFRPb7nqBHwW-282" edge="1">
          <mxGeometry relative="1" as="geometry" />
        </mxCell>
        <mxCell id="fk4BfuyukFRPb7nqBHwW-281" value="" style="shape=waypoint;sketch=0;size=6;pointerEvents=1;points=[];fillColor=#d80073;resizable=0;rotatable=0;perimeter=centerPerimeter;snapToPoint=1;fontColor=#ffffff;strokeColor=#A50040;" parent="1" vertex="1">
          <mxGeometry x="4640" y="-943" width="20" height="20" as="geometry" />
        </mxCell>
        <mxCell id="fk4BfuyukFRPb7nqBHwW-290" style="edgeStyle=orthogonalEdgeStyle;rounded=0;orthogonalLoop=1;jettySize=auto;html=1;exitX=0.5;exitY=1;exitDx=0;exitDy=0;entryX=0.5;entryY=0;entryDx=0;entryDy=0;" parent="1" source="fk4BfuyukFRPb7nqBHwW-282" target="fk4BfuyukFRPb7nqBHwW-289" edge="1">
          <mxGeometry relative="1" as="geometry" />
        </mxCell>
        <mxCell id="fk4BfuyukFRPb7nqBHwW-282" value="OUTPUT&lt;div&gt;&lt;br&gt;&lt;/div&gt;&lt;div&gt;FLOOR_PLAN&lt;/div&gt;" style="shape=parallelogram;perimeter=parallelogramPerimeter;whiteSpace=wrap;html=1;fixedSize=1;" parent="1" vertex="1">
          <mxGeometry x="4575" y="-890" width="150" height="59.25" as="geometry" />
        </mxCell>
        <mxCell id="fk4BfuyukFRPb7nqBHwW-299" style="edgeStyle=orthogonalEdgeStyle;rounded=0;orthogonalLoop=1;jettySize=auto;html=1;exitX=0.5;exitY=1;exitDx=0;exitDy=0;entryX=0.5;entryY=0;entryDx=0;entryDy=0;" parent="1" source="fk4BfuyukFRPb7nqBHwW-289" target="fk4BfuyukFRPb7nqBHwW-292" edge="1">
          <mxGeometry relative="1" as="geometry" />
        </mxCell>
        <mxCell id="fk4BfuyukFRPb7nqBHwW-289" value="INPUT&lt;div&gt;&lt;br&gt;&lt;/div&gt;&lt;div&gt;SEAT_CAT&lt;/div&gt;" style="shape=parallelogram;perimeter=parallelogramPerimeter;whiteSpace=wrap;html=1;fixedSize=1;strokeColor=#FFFFFF;" parent="1" vertex="1">
          <mxGeometry x="4575" y="-799.25" width="150" height="60" as="geometry" />
        </mxCell>
        <mxCell id="fk4BfuyukFRPb7nqBHwW-300" style="edgeStyle=orthogonalEdgeStyle;rounded=0;orthogonalLoop=1;jettySize=auto;html=1;exitX=0.5;exitY=1;exitDx=0;exitDy=0;" parent="1" source="fk4BfuyukFRPb7nqBHwW-292" target="fk4BfuyukFRPb7nqBHwW-295" edge="1">
          <mxGeometry relative="1" as="geometry" />
        </mxCell>
        <mxCell id="fk4BfuyukFRPb7nqBHwW-292" value="SEAT_CAT" style="rhombus;whiteSpace=wrap;html=1;" parent="1" vertex="1">
          <mxGeometry x="4575" y="-693.5" width="150" height="150" as="geometry" />
        </mxCell>
        <mxCell id="fk4BfuyukFRPb7nqBHwW-298" value="DEFAULT" style="edgeStyle=orthogonalEdgeStyle;rounded=0;orthogonalLoop=1;jettySize=auto;html=1;exitX=0.5;exitY=1;exitDx=0;exitDy=0;entryX=0.5;entryY=1;entryDx=0;entryDy=0;" parent="1" source="fk4BfuyukFRPb7nqBHwW-295" target="fk4BfuyukFRPb7nqBHwW-296" edge="1">
          <mxGeometry relative="1" as="geometry">
            <Array as="points">
              <mxPoint x="4650" y="-157.25" />
              <mxPoint x="4460" y="-157.25" />
            </Array>
          </mxGeometry>
        </mxCell>
        <mxCell id="fk4BfuyukFRPb7nqBHwW-295" value="SEAT_CAT" style="rhombus;whiteSpace=wrap;html=1;" parent="1" vertex="1">
          <mxGeometry x="4575" y="-495" width="150" height="150" as="geometry" />
        </mxCell>
        <mxCell id="fk4BfuyukFRPb7nqBHwW-306" style="edgeStyle=orthogonalEdgeStyle;rounded=0;orthogonalLoop=1;jettySize=auto;html=1;exitX=0.5;exitY=0;exitDx=0;exitDy=0;entryX=0;entryY=0.5;entryDx=0;entryDy=0;" parent="1" source="fk4BfuyukFRPb7nqBHwW-296" target="fk4BfuyukFRPb7nqBHwW-282" edge="1">
          <mxGeometry relative="1" as="geometry">
            <Array as="points">
              <mxPoint x="4460" y="-860.25" />
            </Array>
          </mxGeometry>
        </mxCell>
        <mxCell id="fk4BfuyukFRPb7nqBHwW-296" value="&lt;span style=&quot;font-weight: normal;&quot;&gt;CLEAR_SCREEN&lt;/span&gt;" style="rounded=0;whiteSpace=wrap;html=1;fontStyle=1" parent="1" vertex="1">
          <mxGeometry x="4385" y="-648.5" width="150" height="60" as="geometry" />
        </mxCell>
        <mxCell id="fk4BfuyukFRPb7nqBHwW-304" value="" style="shape=waypoint;sketch=0;size=6;pointerEvents=1;points=[];fillColor=#e3c800;resizable=0;rotatable=0;perimeter=centerPerimeter;snapToPoint=1;fontColor=#000000;strokeColor=#B09500;" parent="1" vertex="1">
          <mxGeometry x="4875" y="-430" width="20" height="20" as="geometry" />
        </mxCell>
        <mxCell id="fk4BfuyukFRPb7nqBHwW-305" value="B" style="edgeStyle=orthogonalEdgeStyle;rounded=0;orthogonalLoop=1;jettySize=auto;html=1;exitX=1;exitY=0.5;exitDx=0;exitDy=0;entryX=0.816;entryY=0.763;entryDx=0;entryDy=0;entryPerimeter=0;fillColor=#e3c800;strokeColor=#B09500;" parent="1" source="fk4BfuyukFRPb7nqBHwW-295" target="fk4BfuyukFRPb7nqBHwW-304" edge="1">
          <mxGeometry relative="1" as="geometry" />
        </mxCell>
        <mxCell id="fk4BfuyukFRPb7nqBHwW-308" value="" style="shape=waypoint;sketch=0;size=6;pointerEvents=1;points=[];fillColor=none;resizable=0;rotatable=0;perimeter=centerPerimeter;snapToPoint=1;strokeColor=#66FFB3;" parent="1" vertex="1">
          <mxGeometry x="4875" y="-628.5" width="20" height="20" as="geometry" />
        </mxCell>
        <mxCell id="fk4BfuyukFRPb7nqBHwW-309" value="S" style="edgeStyle=orthogonalEdgeStyle;rounded=0;orthogonalLoop=1;jettySize=auto;html=1;exitX=1;exitY=0.5;exitDx=0;exitDy=0;entryX=0.247;entryY=0.656;entryDx=0;entryDy=0;entryPerimeter=0;strokeColor=#66FFB3;" parent="1" source="fk4BfuyukFRPb7nqBHwW-292" target="fk4BfuyukFRPb7nqBHwW-308" edge="1">
          <mxGeometry relative="1" as="geometry" />
        </mxCell>
        <mxCell id="fk4BfuyukFRPb7nqBHwW-331" value="SEAT SELECTION" style="text;html=1;align=center;verticalAlign=middle;resizable=0;points=[];autosize=1;strokeColor=none;fillColor=none;" parent="1" vertex="1">
          <mxGeometry x="5795" y="-1070" width="130" height="30" as="geometry" />
        </mxCell>
        <mxCell id="fk4BfuyukFRPb7nqBHwW-366" value="BACK / UNDO" style="text;html=1;align=center;verticalAlign=middle;whiteSpace=wrap;rounded=0;" parent="1" vertex="1">
          <mxGeometry x="4728" y="-469.5" width="237" height="30" as="geometry" />
        </mxCell>
        <mxCell id="_7ieRwts1pLUNNnIRrpb-20" value="S" style="edgeStyle=orthogonalEdgeStyle;rounded=0;orthogonalLoop=1;jettySize=auto;html=1;strokeColor=#00FF80;entryX=0.25;entryY=0;entryDx=0;entryDy=0;" parent="1" source="5m1O86NGaFOG43O_L-Pf-1" target="_7ieRwts1pLUNNnIRrpb-7" edge="1">
          <mxGeometry relative="1" as="geometry" />
        </mxCell>
        <mxCell id="5m1O86NGaFOG43O_L-Pf-1" value="" style="shape=waypoint;sketch=0;size=6;pointerEvents=1;points=[];fillColor=none;resizable=0;rotatable=0;perimeter=centerPerimeter;snapToPoint=1;strokeColor=#00FF80;" parent="1" vertex="1">
          <mxGeometry x="6190" y="-970.0000000000001" width="20" height="20" as="geometry" />
        </mxCell>
        <mxCell id="5m1O86NGaFOG43O_L-Pf-2" value="EDIT MODE" style="text;html=1;align=center;verticalAlign=middle;resizable=0;points=[];autosize=1;strokeColor=none;fillColor=none;" parent="1" vertex="1">
          <mxGeometry x="6650" y="-1070" width="90" height="30" as="geometry" />
        </mxCell>
        <mxCell id="_7ieRwts1pLUNNnIRrpb-21" value="R" style="edgeStyle=orthogonalEdgeStyle;rounded=0;orthogonalLoop=1;jettySize=auto;html=1;entryX=0.75;entryY=0;entryDx=0;entryDy=0;fillColor=#fa6800;strokeColor=#C73500;" parent="1" source="5m1O86NGaFOG43O_L-Pf-3" target="_7ieRwts1pLUNNnIRrpb-7" edge="1">
          <mxGeometry relative="1" as="geometry" />
        </mxCell>
        <mxCell id="5m1O86NGaFOG43O_L-Pf-3" value="" style="shape=waypoint;sketch=0;size=6;pointerEvents=1;points=[];fillColor=#fa6800;resizable=0;rotatable=0;perimeter=centerPerimeter;snapToPoint=1;fontColor=#000000;strokeColor=#C73500;" parent="1" vertex="1">
          <mxGeometry x="6350" y="-970" width="20" height="20" as="geometry" />
        </mxCell>
        <mxCell id="_7ieRwts1pLUNNnIRrpb-92" style="edgeStyle=orthogonalEdgeStyle;rounded=0;orthogonalLoop=1;jettySize=auto;html=1;exitX=0.5;exitY=0;exitDx=0;exitDy=0;entryX=0.5;entryY=1;entryDx=0;entryDy=0;" parent="1" source="5m1O86NGaFOG43O_L-Pf-4" target="_7ieRwts1pLUNNnIRrpb-90" edge="1">
          <mxGeometry relative="1" as="geometry" />
        </mxCell>
        <mxCell id="5m1O86NGaFOG43O_L-Pf-4" value="&lt;span style=&quot;font-weight: normal;&quot;&gt;CLEAR_SCREEN&lt;/span&gt;" style="rounded=0;whiteSpace=wrap;html=1;fontStyle=1" parent="1" vertex="1">
          <mxGeometry x="6430" y="-574.5" width="320" height="60" as="geometry" />
        </mxCell>
        <mxCell id="_7ieRwts1pLUNNnIRrpb-94" style="edgeStyle=orthogonalEdgeStyle;rounded=0;orthogonalLoop=1;jettySize=auto;html=1;exitX=0.25;exitY=0;exitDx=0;exitDy=0;entryX=0.5;entryY=1;entryDx=0;entryDy=0;" parent="1" source="5m1O86NGaFOG43O_L-Pf-5" target="_7ieRwts1pLUNNnIRrpb-48" edge="1">
          <mxGeometry relative="1" as="geometry" />
        </mxCell>
        <mxCell id="5m1O86NGaFOG43O_L-Pf-5" value="&lt;span style=&quot;font-weight: normal;&quot;&gt;COLOR&lt;/span&gt;" style="rounded=0;whiteSpace=wrap;html=1;fontStyle=1" parent="1" vertex="1">
          <mxGeometry x="6430" y="-770" width="320" height="60" as="geometry" />
        </mxCell>
        <mxCell id="_7ieRwts1pLUNNnIRrpb-31" style="edgeStyle=orthogonalEdgeStyle;rounded=0;orthogonalLoop=1;jettySize=auto;html=1;exitX=0.5;exitY=1;exitDx=0;exitDy=0;entryX=0.5;entryY=0;entryDx=0;entryDy=0;" parent="1" source="_7ieRwts1pLUNNnIRrpb-4" target="_7ieRwts1pLUNNnIRrpb-5" edge="1">
          <mxGeometry relative="1" as="geometry" />
        </mxCell>
        <mxCell id="_7ieRwts1pLUNNnIRrpb-35" style="edgeStyle=orthogonalEdgeStyle;rounded=0;orthogonalLoop=1;jettySize=auto;html=1;exitX=1;exitY=0.5;exitDx=0;exitDy=0;entryX=0;entryY=0.5;entryDx=0;entryDy=0;strokeColor=#00FF80;" parent="1" source="_7ieRwts1pLUNNnIRrpb-4" target="_7ieRwts1pLUNNnIRrpb-33" edge="1">
          <mxGeometry relative="1" as="geometry" />
        </mxCell>
        <mxCell id="_7ieRwts1pLUNNnIRrpb-37" style="edgeStyle=orthogonalEdgeStyle;rounded=0;orthogonalLoop=1;jettySize=auto;html=1;exitX=1;exitY=0.5;exitDx=0;exitDy=0;entryX=0;entryY=0.5;entryDx=0;entryDy=0;fillColor=#fa6800;strokeColor=#C73500;" parent="1" source="_7ieRwts1pLUNNnIRrpb-4" target="5m1O86NGaFOG43O_L-Pf-4" edge="1">
          <mxGeometry relative="1" as="geometry">
            <Array as="points">
              <mxPoint x="6360" y="-544" />
            </Array>
          </mxGeometry>
        </mxCell>
        <mxCell id="_7ieRwts1pLUNNnIRrpb-4" value="SEAT_EDIT" style="rhombus;whiteSpace=wrap;html=1;" parent="1" vertex="1">
          <mxGeometry x="6200" y="-438" width="160" height="160" as="geometry" />
        </mxCell>
        <mxCell id="_7ieRwts1pLUNNnIRrpb-28" value="B" style="edgeStyle=orthogonalEdgeStyle;rounded=0;orthogonalLoop=1;jettySize=auto;html=1;strokeColor=#66FFB3;" parent="1" source="_7ieRwts1pLUNNnIRrpb-5" target="_7ieRwts1pLUNNnIRrpb-27" edge="1">
          <mxGeometry relative="1" as="geometry">
            <mxPoint as="offset" />
          </mxGeometry>
        </mxCell>
        <mxCell id="_7ieRwts1pLUNNnIRrpb-32" value="DEFAULT" style="edgeStyle=orthogonalEdgeStyle;rounded=0;orthogonalLoop=1;jettySize=auto;html=1;exitX=0.5;exitY=1;exitDx=0;exitDy=0;entryX=0.5;entryY=1;entryDx=0;entryDy=0;" parent="1" source="_7ieRwts1pLUNNnIRrpb-5" target="_7ieRwts1pLUNNnIRrpb-23" edge="1">
          <mxGeometry relative="1" as="geometry" />
        </mxCell>
        <mxCell id="_7ieRwts1pLUNNnIRrpb-5" value="SEAT_EDIT" style="rhombus;whiteSpace=wrap;html=1;" parent="1" vertex="1">
          <mxGeometry x="6200" y="-220.5" width="160" height="160" as="geometry" />
        </mxCell>
        <mxCell id="_7ieRwts1pLUNNnIRrpb-19" style="edgeStyle=orthogonalEdgeStyle;rounded=0;orthogonalLoop=1;jettySize=auto;html=1;exitX=0.5;exitY=1;exitDx=0;exitDy=0;entryX=0.5;entryY=0;entryDx=0;entryDy=0;" parent="1" source="_7ieRwts1pLUNNnIRrpb-7" target="_7ieRwts1pLUNNnIRrpb-8" edge="1">
          <mxGeometry relative="1" as="geometry" />
        </mxCell>
        <mxCell id="_7ieRwts1pLUNNnIRrpb-7" value="OUTPUT&lt;div&gt;&lt;br&gt;&lt;/div&gt;&lt;div&gt;SEAT_EDIT&lt;/div&gt;" style="shape=parallelogram;perimeter=parallelogramPerimeter;whiteSpace=wrap;html=1;fixedSize=1;" parent="1" vertex="1">
          <mxGeometry x="6205" y="-865.5" width="150" height="59.25" as="geometry" />
        </mxCell>
        <mxCell id="_7ieRwts1pLUNNnIRrpb-22" style="edgeStyle=orthogonalEdgeStyle;rounded=0;orthogonalLoop=1;jettySize=auto;html=1;exitX=0.5;exitY=1;exitDx=0;exitDy=0;entryX=0.5;entryY=0;entryDx=0;entryDy=0;" parent="1" source="_7ieRwts1pLUNNnIRrpb-8" target="_7ieRwts1pLUNNnIRrpb-4" edge="1">
          <mxGeometry relative="1" as="geometry" />
        </mxCell>
        <mxCell id="_7ieRwts1pLUNNnIRrpb-8" value="INPUT&lt;div&gt;&lt;br&gt;&lt;/div&gt;&lt;div&gt;SEAT_EDIT&lt;br&gt;&lt;/div&gt;" style="shape=parallelogram;perimeter=parallelogramPerimeter;whiteSpace=wrap;html=1;fixedSize=1;strokeColor=#FFFFFF;" parent="1" vertex="1">
          <mxGeometry x="6205" y="-730" width="150" height="60" as="geometry" />
        </mxCell>
        <mxCell id="_7ieRwts1pLUNNnIRrpb-24" style="edgeStyle=orthogonalEdgeStyle;rounded=0;orthogonalLoop=1;jettySize=auto;html=1;exitX=0.5;exitY=0;exitDx=0;exitDy=0;entryX=0;entryY=0.5;entryDx=0;entryDy=0;" parent="1" source="_7ieRwts1pLUNNnIRrpb-23" target="_7ieRwts1pLUNNnIRrpb-7" edge="1">
          <mxGeometry relative="1" as="geometry">
            <Array as="points">
              <mxPoint x="6085" y="-836" />
            </Array>
          </mxGeometry>
        </mxCell>
        <mxCell id="_7ieRwts1pLUNNnIRrpb-23" value="&lt;span style=&quot;font-weight: normal;&quot;&gt;CLEAR_SCREEN&lt;/span&gt;" style="rounded=0;whiteSpace=wrap;html=1;fontStyle=1" parent="1" vertex="1">
          <mxGeometry x="6010" y="-507.74999999999994" width="150" height="60" as="geometry" />
        </mxCell>
        <mxCell id="_7ieRwts1pLUNNnIRrpb-27" value="" style="shape=waypoint;sketch=0;size=6;pointerEvents=1;points=[];fillColor=none;resizable=0;rotatable=0;perimeter=centerPerimeter;snapToPoint=1;strokeColor=#66FFB3;" parent="1" vertex="1">
          <mxGeometry x="6530" y="-150.5" width="20" height="20" as="geometry" />
        </mxCell>
        <mxCell id="_7ieRwts1pLUNNnIRrpb-43" value="SEAT AVAILABLE" style="edgeStyle=orthogonalEdgeStyle;rounded=0;orthogonalLoop=1;jettySize=auto;html=1;exitX=0.5;exitY=0;exitDx=0;exitDy=0;entryX=0.25;entryY=1;entryDx=0;entryDy=0;" parent="1" source="_7ieRwts1pLUNNnIRrpb-33" target="5m1O86NGaFOG43O_L-Pf-4" edge="1">
          <mxGeometry relative="1" as="geometry" />
        </mxCell>
        <mxCell id="_7ieRwts1pLUNNnIRrpb-45" value="SEAT OCCUPIED" style="edgeStyle=orthogonalEdgeStyle;rounded=0;orthogonalLoop=1;jettySize=auto;html=1;exitX=1;exitY=0.5;exitDx=0;exitDy=0;entryX=0.5;entryY=1;entryDx=0;entryDy=0;" parent="1" source="_7ieRwts1pLUNNnIRrpb-33" edge="1">
          <mxGeometry relative="1" as="geometry">
            <mxPoint x="6675" y="-513.75" as="targetPoint" />
            <Array as="points">
              <mxPoint x="6675" y="-358" />
            </Array>
          </mxGeometry>
        </mxCell>
        <mxCell id="_7ieRwts1pLUNNnIRrpb-33" value="SEAT_STATUS" style="rhombus;whiteSpace=wrap;html=1;" parent="1" vertex="1">
          <mxGeometry x="6430" y="-438.25" width="160" height="160" as="geometry" />
        </mxCell>
        <mxCell id="_7ieRwts1pLUNNnIRrpb-51" style="edgeStyle=orthogonalEdgeStyle;rounded=0;orthogonalLoop=1;jettySize=auto;html=1;exitX=0;exitY=0.5;exitDx=0;exitDy=0;entryX=1;entryY=0.5;entryDx=0;entryDy=0;" parent="1" source="_7ieRwts1pLUNNnIRrpb-48" target="_7ieRwts1pLUNNnIRrpb-7" edge="1">
          <mxGeometry relative="1" as="geometry" />
        </mxCell>
        <mxCell id="_7ieRwts1pLUNNnIRrpb-48" value="OUTPUT&lt;div&gt;&lt;br&gt;&lt;/div&gt;&lt;div&gt;SEAT_MESSAGE&lt;/div&gt;" style="shape=parallelogram;perimeter=parallelogramPerimeter;whiteSpace=wrap;html=1;fixedSize=1;" parent="1" vertex="1">
          <mxGeometry x="6435" y="-864.75" width="150" height="59.25" as="geometry" />
        </mxCell>
        <mxCell id="_7ieRwts1pLUNNnIRrpb-53" value="&lt;span style=&quot;color: rgb(240, 240, 240); font-family: Helvetica; font-size: 12px; font-style: normal; font-variant-ligatures: normal; font-variant-caps: normal; font-weight: 400; letter-spacing: normal; orphans: 2; text-align: center; text-indent: 0px; text-transform: none; widows: 2; word-spacing: 0px; -webkit-text-stroke-width: 0px; white-space: normal; background-color: rgb(27, 29, 30); text-decoration-thickness: initial; text-decoration-style: initial; text-decoration-color: initial; display: inline !important; float: none;&quot;&gt;MOVIE_ISELECT&lt;/span&gt;" style="text;whiteSpace=wrap;html=1;" parent="1" vertex="1">
          <mxGeometry x="1720" y="-215" width="130" height="40" as="geometry" />
        </mxCell>
        <mxCell id="_7ieRwts1pLUNNnIRrpb-54" value="&lt;span style=&quot;color: rgb(240, 240, 240); font-family: Helvetica; font-size: 12px; font-style: normal; font-variant-ligatures: normal; font-variant-caps: normal; font-weight: 400; letter-spacing: normal; orphans: 2; text-align: center; text-indent: 0px; text-transform: none; widows: 2; word-spacing: 0px; -webkit-text-stroke-width: 0px; white-space: normal; background-color: rgb(27, 29, 30); text-decoration-thickness: initial; text-decoration-style: initial; text-decoration-color: initial; display: inline !important; float: none;&quot;&gt;MOVIE_ICONFIRM&lt;/span&gt;" style="text;whiteSpace=wrap;html=1;" parent="1" vertex="1">
          <mxGeometry x="2580" y="-347" width="110" height="40" as="geometry" />
        </mxCell>
        <mxCell id="fk4BfuyukFRPb7nqBHwW-226" value="" style="rounded=0;whiteSpace=wrap;html=1;fillColor=#CC00CC;opacity=15;strokeColor=#314354;fontColor=#ffffff;movable=0;" parent="1" vertex="1">
          <mxGeometry x="2830" y="-790" width="525" height="512" as="geometry" />
        </mxCell>
        <mxCell id="fk4BfuyukFRPb7nqBHwW-221" value="" style="rounded=0;whiteSpace=wrap;html=1;fillColor=#0050ef;fontColor=#ffffff;strokeColor=#001DBC;opacity=15;" parent="1" vertex="1">
          <mxGeometry x="2830" y="-228" width="390" height="150" as="geometry" />
        </mxCell>
        <mxCell id="fk4BfuyukFRPb7nqBHwW-159" style="edgeStyle=orthogonalEdgeStyle;rounded=0;orthogonalLoop=1;jettySize=auto;html=1;entryX=0.5;entryY=0;entryDx=0;entryDy=0;fillColor=#e3c800;strokeColor=#B09500;" parent="1" source="fk4BfuyukFRPb7nqBHwW-151" target="fk4BfuyukFRPb7nqBHwW-157" edge="1">
          <mxGeometry relative="1" as="geometry" />
        </mxCell>
        <mxCell id="fk4BfuyukFRPb7nqBHwW-151" value="" style="shape=waypoint;sketch=0;size=6;pointerEvents=1;points=[];fillColor=#e3c800;resizable=0;rotatable=0;perimeter=centerPerimeter;snapToPoint=1;fontColor=#000000;strokeColor=#B09500;" parent="1" vertex="1">
          <mxGeometry x="2895" y="-1025" width="20" height="20" as="geometry" />
        </mxCell>
        <mxCell id="fk4BfuyukFRPb7nqBHwW-176" style="edgeStyle=orthogonalEdgeStyle;rounded=0;orthogonalLoop=1;jettySize=auto;html=1;exitX=0.5;exitY=1;exitDx=0;exitDy=0;" parent="1" source="fk4BfuyukFRPb7nqBHwW-154" edge="1">
          <mxGeometry relative="1" as="geometry">
            <mxPoint x="2905.545454545454" y="-618" as="targetPoint" />
          </mxGeometry>
        </mxCell>
        <mxCell id="fk4BfuyukFRPb7nqBHwW-209" value="1" style="edgeStyle=orthogonalEdgeStyle;rounded=0;orthogonalLoop=1;jettySize=auto;html=1;exitX=1;exitY=0.5;exitDx=0;exitDy=0;entryX=0;entryY=0.5;entryDx=0;entryDy=0;strokeColor=#CC00CC;" parent="1" source="fk4BfuyukFRPb7nqBHwW-154" target="fk4BfuyukFRPb7nqBHwW-206" edge="1">
          <mxGeometry relative="1" as="geometry" />
        </mxCell>
        <mxCell id="fk4BfuyukFRPb7nqBHwW-154" value="MOVIE_ISELECT" style="rhombus;whiteSpace=wrap;html=1;" parent="1" vertex="1">
          <mxGeometry x="2830" y="-795" width="150" height="150" as="geometry" />
        </mxCell>
        <mxCell id="fk4BfuyukFRPb7nqBHwW-177" style="edgeStyle=orthogonalEdgeStyle;rounded=0;orthogonalLoop=1;jettySize=auto;html=1;exitX=0.5;exitY=1;exitDx=0;exitDy=0;entryX=0.5;entryY=0;entryDx=0;entryDy=0;" parent="1" source="fk4BfuyukFRPb7nqBHwW-155" target="fk4BfuyukFRPb7nqBHwW-156" edge="1">
          <mxGeometry relative="1" as="geometry" />
        </mxCell>
        <mxCell id="fk4BfuyukFRPb7nqBHwW-210" value="2" style="edgeStyle=orthogonalEdgeStyle;rounded=0;orthogonalLoop=1;jettySize=auto;html=1;exitX=1;exitY=0.5;exitDx=0;exitDy=0;entryX=0;entryY=0.5;entryDx=0;entryDy=0;strokeColor=#CC00CC;" parent="1" source="fk4BfuyukFRPb7nqBHwW-155" target="fk4BfuyukFRPb7nqBHwW-207" edge="1">
          <mxGeometry relative="1" as="geometry" />
        </mxCell>
        <mxCell id="fk4BfuyukFRPb7nqBHwW-155" value="MOVIE_ISELECT" style="rhombus;whiteSpace=wrap;html=1;" parent="1" vertex="1">
          <mxGeometry x="2830" y="-615.75" width="150" height="150" as="geometry" />
        </mxCell>
        <mxCell id="fk4BfuyukFRPb7nqBHwW-211" value="3" style="edgeStyle=orthogonalEdgeStyle;rounded=0;orthogonalLoop=1;jettySize=auto;html=1;exitX=1;exitY=0.5;exitDx=0;exitDy=0;entryX=0;entryY=0.5;entryDx=0;entryDy=0;strokeColor=#CC00CC;" parent="1" source="fk4BfuyukFRPb7nqBHwW-156" target="fk4BfuyukFRPb7nqBHwW-208" edge="1">
          <mxGeometry relative="1" as="geometry" />
        </mxCell>
        <mxCell id="fk4BfuyukFRPb7nqBHwW-217" style="edgeStyle=orthogonalEdgeStyle;rounded=0;orthogonalLoop=1;jettySize=auto;html=1;exitX=0.5;exitY=1;exitDx=0;exitDy=0;entryX=0.5;entryY=0;entryDx=0;entryDy=0;" parent="1" source="fk4BfuyukFRPb7nqBHwW-156" target="fk4BfuyukFRPb7nqBHwW-174" edge="1">
          <mxGeometry relative="1" as="geometry" />
        </mxCell>
        <mxCell id="fk4BfuyukFRPb7nqBHwW-156" value="MOVIE_ISELECT" style="rhombus;whiteSpace=wrap;html=1;" parent="1" vertex="1">
          <mxGeometry x="2830" y="-434.25" width="150" height="150" as="geometry" />
        </mxCell>
        <mxCell id="fk4BfuyukFRPb7nqBHwW-160" style="edgeStyle=orthogonalEdgeStyle;rounded=0;orthogonalLoop=1;jettySize=auto;html=1;exitX=0.5;exitY=1;exitDx=0;exitDy=0;entryX=0.5;entryY=0;entryDx=0;entryDy=0;" parent="1" source="fk4BfuyukFRPb7nqBHwW-157" target="fk4BfuyukFRPb7nqBHwW-158" edge="1">
          <mxGeometry relative="1" as="geometry" />
        </mxCell>
        <mxCell id="fk4BfuyukFRPb7nqBHwW-157" value="OUTPUT&lt;div&gt;&lt;br&gt;&lt;/div&gt;&lt;div&gt;MOVIE_SELECT&lt;/div&gt;" style="shape=parallelogram;perimeter=parallelogramPerimeter;whiteSpace=wrap;html=1;fixedSize=1;" parent="1" vertex="1">
          <mxGeometry x="2830" y="-985" width="150" height="59.25" as="geometry" />
        </mxCell>
        <mxCell id="fk4BfuyukFRPb7nqBHwW-172" style="edgeStyle=orthogonalEdgeStyle;rounded=0;orthogonalLoop=1;jettySize=auto;html=1;exitX=0.5;exitY=1;exitDx=0;exitDy=0;entryX=0.5;entryY=0;entryDx=0;entryDy=0;" parent="1" source="fk4BfuyukFRPb7nqBHwW-158" target="fk4BfuyukFRPb7nqBHwW-154" edge="1">
          <mxGeometry relative="1" as="geometry" />
        </mxCell>
        <mxCell id="fk4BfuyukFRPb7nqBHwW-158" value="INPUT&lt;div&gt;&lt;br&gt;&lt;/div&gt;&lt;div&gt;MOVIE_ISELECT&lt;/div&gt;" style="shape=parallelogram;perimeter=parallelogramPerimeter;whiteSpace=wrap;html=1;fixedSize=1;strokeColor=#FFFFFF;" parent="1" vertex="1">
          <mxGeometry x="2830" y="-890" width="150" height="60" as="geometry" />
        </mxCell>
        <mxCell id="fk4BfuyukFRPb7nqBHwW-204" value="DEFAULT" style="edgeStyle=orthogonalEdgeStyle;rounded=0;orthogonalLoop=1;jettySize=auto;html=1;exitX=0.5;exitY=1;exitDx=0;exitDy=0;entryX=0.75;entryY=1;entryDx=0;entryDy=0;" parent="1" source="fk4BfuyukFRPb7nqBHwW-174" target="fk4BfuyukFRPb7nqBHwW-175" edge="1">
          <mxGeometry relative="1" as="geometry" />
        </mxCell>
        <mxCell id="fk4BfuyukFRPb7nqBHwW-220" value="B" style="edgeStyle=orthogonalEdgeStyle;rounded=0;orthogonalLoop=1;jettySize=auto;html=1;exitX=1;exitY=0.5;exitDx=0;exitDy=0;fillColor=#0050ef;strokeColor=#001DBC;" parent="1" source="fk4BfuyukFRPb7nqBHwW-174" target="fk4BfuyukFRPb7nqBHwW-219" edge="1">
          <mxGeometry relative="1" as="geometry" />
        </mxCell>
        <mxCell id="fk4BfuyukFRPb7nqBHwW-174" value="MOVIE_ISELECT" style="rhombus;whiteSpace=wrap;html=1;" parent="1" vertex="1">
          <mxGeometry x="2830" y="-225" width="150" height="150" as="geometry" />
        </mxCell>
        <mxCell id="fk4BfuyukFRPb7nqBHwW-205" style="edgeStyle=orthogonalEdgeStyle;rounded=0;orthogonalLoop=1;jettySize=auto;html=1;exitX=0.5;exitY=0;exitDx=0;exitDy=0;entryX=0;entryY=0.5;entryDx=0;entryDy=0;" parent="1" source="fk4BfuyukFRPb7nqBHwW-175" target="fk4BfuyukFRPb7nqBHwW-157" edge="1">
          <mxGeometry relative="1" as="geometry">
            <Array as="points">
              <mxPoint x="2735" y="-955" />
            </Array>
          </mxGeometry>
        </mxCell>
        <mxCell id="fk4BfuyukFRPb7nqBHwW-175" value="&lt;span style=&quot;font-weight: normal;&quot;&gt;CLEAR_SCREEN&lt;/span&gt;" style="rounded=0;whiteSpace=wrap;html=1;fontStyle=1" parent="1" vertex="1">
          <mxGeometry x="2660" y="-565" width="150" height="60" as="geometry" />
        </mxCell>
        <mxCell id="fk4BfuyukFRPb7nqBHwW-206" value="&lt;span style=&quot;font-weight: normal;&quot;&gt;MOVIE PROCESS&lt;/span&gt;" style="rounded=0;whiteSpace=wrap;html=1;fontStyle=1;strokeColor=#CC00CC;" parent="1" vertex="1">
          <mxGeometry x="3080" y="-750" width="150" height="60" as="geometry" />
        </mxCell>
        <mxCell id="fk4BfuyukFRPb7nqBHwW-207" value="&lt;span style=&quot;font-weight: normal;&quot;&gt;MOVIE PROCESS&lt;/span&gt;" style="rounded=0;whiteSpace=wrap;html=1;fontStyle=1;strokeColor=#CC00CC;" parent="1" vertex="1">
          <mxGeometry x="3080" y="-570.75" width="150" height="60" as="geometry" />
        </mxCell>
        <mxCell id="fk4BfuyukFRPb7nqBHwW-208" value="&lt;span style=&quot;font-weight: normal;&quot;&gt;MOVIE PROCESS&lt;/span&gt;" style="rounded=0;whiteSpace=wrap;html=1;fontStyle=1;strokeColor=#CC00CC;" parent="1" vertex="1">
          <mxGeometry x="3080" y="-389.25" width="150" height="60" as="geometry" />
        </mxCell>
        <mxCell id="fk4BfuyukFRPb7nqBHwW-212" value="" style="shape=waypoint;sketch=0;size=6;pointerEvents=1;points=[];fillColor=none;resizable=0;rotatable=0;perimeter=centerPerimeter;snapToPoint=1;strokeColor=#CC00CC;" parent="1" vertex="1">
          <mxGeometry x="3295" y="-550" width="20" height="20" as="geometry" />
        </mxCell>
        <mxCell id="fk4BfuyukFRPb7nqBHwW-213" style="edgeStyle=orthogonalEdgeStyle;rounded=0;orthogonalLoop=1;jettySize=auto;html=1;exitX=1;exitY=0.5;exitDx=0;exitDy=0;entryX=1.104;entryY=0.511;entryDx=0;entryDy=0;entryPerimeter=0;strokeColor=#CC00CC;" parent="1" source="fk4BfuyukFRPb7nqBHwW-206" target="fk4BfuyukFRPb7nqBHwW-212" edge="1">
          <mxGeometry relative="1" as="geometry" />
        </mxCell>
        <mxCell id="fk4BfuyukFRPb7nqBHwW-215" style="edgeStyle=orthogonalEdgeStyle;rounded=0;orthogonalLoop=1;jettySize=auto;html=1;exitX=1;exitY=0.5;exitDx=0;exitDy=0;entryX=0.612;entryY=1.064;entryDx=0;entryDy=0;entryPerimeter=0;strokeColor=#CC00CC;" parent="1" source="fk4BfuyukFRPb7nqBHwW-208" target="fk4BfuyukFRPb7nqBHwW-212" edge="1">
          <mxGeometry relative="1" as="geometry" />
        </mxCell>
        <mxCell id="fk4BfuyukFRPb7nqBHwW-216" style="edgeStyle=orthogonalEdgeStyle;rounded=0;orthogonalLoop=1;jettySize=auto;html=1;exitX=1;exitY=0.5;exitDx=0;exitDy=0;entryX=-0.004;entryY=0.449;entryDx=0;entryDy=0;entryPerimeter=0;strokeColor=#CC00CC;" parent="1" source="fk4BfuyukFRPb7nqBHwW-207" target="fk4BfuyukFRPb7nqBHwW-212" edge="1">
          <mxGeometry relative="1" as="geometry" />
        </mxCell>
        <mxCell id="fk4BfuyukFRPb7nqBHwW-219" value="" style="shape=waypoint;sketch=0;size=6;pointerEvents=1;points=[];fillColor=#0050ef;resizable=0;rotatable=0;perimeter=centerPerimeter;snapToPoint=1;fontColor=#ffffff;strokeColor=#001DBC;" parent="1" vertex="1">
          <mxGeometry x="3145" y="-160" width="20" height="20" as="geometry" />
        </mxCell>
        <mxCell id="fk4BfuyukFRPb7nqBHwW-222" value="BACK / UNDO" style="text;html=1;align=center;verticalAlign=middle;whiteSpace=wrap;rounded=0;" parent="1" vertex="1">
          <mxGeometry x="2983" y="-204" width="237" height="30" as="geometry" />
        </mxCell>
        <mxCell id="fk4BfuyukFRPb7nqBHwW-279" value="N" style="edgeStyle=orthogonalEdgeStyle;rounded=0;orthogonalLoop=1;jettySize=auto;html=1;entryX=0.25;entryY=1;entryDx=0;entryDy=0;fillColor=#e3c800;strokeColor=#B09500;" parent="1" source="fk4BfuyukFRPb7nqBHwW-278" target="fk4BfuyukFRPb7nqBHwW-175" edge="1">
          <mxGeometry relative="1" as="geometry">
            <Array as="points">
              <mxPoint x="2698" y="-310" />
            </Array>
          </mxGeometry>
        </mxCell>
        <mxCell id="_7ieRwts1pLUNNnIRrpb-60" style="edgeStyle=orthogonalEdgeStyle;rounded=0;orthogonalLoop=1;jettySize=auto;html=1;entryX=0.5;entryY=1;entryDx=0;entryDy=0;fillColor=#e3c800;strokeColor=#B09500;" parent="1" source="_7ieRwts1pLUNNnIRrpb-58" target="fk4BfuyukFRPb7nqBHwW-175" edge="1">
          <mxGeometry relative="1" as="geometry" />
        </mxCell>
        <mxCell id="fk4BfuyukFRPb7nqBHwW-278" value="" style="shape=waypoint;sketch=0;size=6;pointerEvents=1;points=[];fillColor=#e3c800;resizable=0;rotatable=0;perimeter=centerPerimeter;snapToPoint=1;fontColor=#000000;strokeColor=#B09500;" parent="1" vertex="1">
          <mxGeometry x="2620" y="-320" width="20" height="20" as="geometry" />
        </mxCell>
        <mxCell id="fk4BfuyukFRPb7nqBHwW-302" value="B" style="edgeStyle=orthogonalEdgeStyle;rounded=0;orthogonalLoop=1;jettySize=auto;html=1;entryX=0.5;entryY=1;entryDx=0;entryDy=0;fillColor=#e3c800;strokeColor=#B09500;" parent="1" source="fk4BfuyukFRPb7nqBHwW-301" target="fk4BfuyukFRPb7nqBHwW-175" edge="1">
          <mxGeometry relative="1" as="geometry">
            <Array as="points">
              <mxPoint x="2735" y="-215" />
            </Array>
          </mxGeometry>
        </mxCell>
        <mxCell id="fk4BfuyukFRPb7nqBHwW-301" value="" style="shape=waypoint;sketch=0;size=6;pointerEvents=1;points=[];fillColor=#e3c800;resizable=0;rotatable=0;perimeter=centerPerimeter;snapToPoint=1;fontColor=#000000;strokeColor=#B09500;" parent="1" vertex="1">
          <mxGeometry x="2620" y="-225" width="20" height="20" as="geometry" />
        </mxCell>
        <mxCell id="_7ieRwts1pLUNNnIRrpb-56" value="&lt;span style=&quot;color: rgb(240, 240, 240); font-family: Helvetica; font-size: 12px; font-style: normal; font-variant-ligatures: normal; font-variant-caps: normal; font-weight: 400; letter-spacing: normal; orphans: 2; text-align: center; text-indent: 0px; text-transform: none; widows: 2; word-spacing: 0px; -webkit-text-stroke-width: 0px; white-space: normal; background-color: rgb(27, 29, 30); text-decoration-thickness: initial; text-decoration-style: initial; text-decoration-color: initial; display: inline !important; float: none;&quot;&gt;SEAT_CAT&lt;/span&gt;" style="text;whiteSpace=wrap;html=1;" parent="1" vertex="1">
          <mxGeometry x="2595" y="-254.5" width="70" height="30" as="geometry" />
        </mxCell>
        <mxCell id="_7ieRwts1pLUNNnIRrpb-58" value="" style="shape=waypoint;sketch=0;size=6;pointerEvents=1;points=[];fillColor=#e3c800;resizable=0;rotatable=0;perimeter=centerPerimeter;snapToPoint=1;fontColor=#000000;strokeColor=#B09500;" parent="1" vertex="1">
          <mxGeometry x="2620" y="-152" width="20" height="20" as="geometry" />
        </mxCell>
        <mxCell id="_7ieRwts1pLUNNnIRrpb-61" value="&lt;span style=&quot;color: rgb(240, 240, 240); font-family: Helvetica; font-size: 12px; font-style: normal; font-variant-ligatures: normal; font-variant-caps: normal; font-weight: 400; letter-spacing: normal; orphans: 2; text-align: center; text-indent: 0px; text-transform: none; widows: 2; word-spacing: 0px; -webkit-text-stroke-width: 0px; white-space: normal; background-color: rgb(27, 29, 30); text-decoration-thickness: initial; text-decoration-style: initial; text-decoration-color: initial; display: inline !important; float: none;&quot;&gt;SEAT_SELECT_CAT&lt;/span&gt;" style="text;whiteSpace=wrap;html=1;" parent="1" vertex="1">
          <mxGeometry x="2570" y="-175" width="120" height="25" as="geometry" />
        </mxCell>
        <mxCell id="_7ieRwts1pLUNNnIRrpb-66" value="&lt;span style=&quot;color: rgb(240, 240, 240); font-family: Helvetica; font-size: 12px; font-style: normal; font-variant-ligatures: normal; font-variant-caps: normal; font-weight: 400; letter-spacing: normal; orphans: 2; text-align: center; text-indent: 0px; text-transform: none; widows: 2; word-spacing: 0px; -webkit-text-stroke-width: 0px; white-space: normal; background-color: rgb(27, 29, 30); text-decoration-thickness: initial; text-decoration-style: initial; text-decoration-color: initial; display: inline !important; float: none;&quot;&gt;SEAT_SELECT_CAT&lt;/span&gt;" style="text;whiteSpace=wrap;html=1;" parent="1" vertex="1">
          <mxGeometry x="6220" y="-984.56" width="120" height="30" as="geometry" />
        </mxCell>
        <mxCell id="_7ieRwts1pLUNNnIRrpb-68" value="&lt;span style=&quot;color: rgb(240, 240, 240); font-family: Helvetica; font-size: 12px; font-style: normal; font-variant-ligatures: normal; font-variant-caps: normal; font-weight: 400; letter-spacing: normal; orphans: 2; text-align: center; text-indent: 0px; text-transform: none; widows: 2; word-spacing: 0px; -webkit-text-stroke-width: 0px; white-space: normal; background-color: rgb(27, 29, 30); text-decoration-thickness: initial; text-decoration-style: initial; text-decoration-color: initial; display: inline !important; float: none;&quot;&gt;MOVIE_ICONFIRM&lt;/span&gt;" style="text;whiteSpace=wrap;html=1;" parent="1" vertex="1">
          <mxGeometry x="4595" y="-964.94" width="110" height="20" as="geometry" />
        </mxCell>
        <mxCell id="_7ieRwts1pLUNNnIRrpb-69" value="&lt;span style=&quot;color: rgb(240, 240, 240); font-family: Helvetica; font-size: 12px; font-style: normal; font-variant-ligatures: normal; font-variant-caps: normal; font-weight: 400; letter-spacing: normal; orphans: 2; text-align: center; text-indent: 0px; text-transform: none; widows: 2; word-spacing: 0px; -webkit-text-stroke-width: 0px; white-space: normal; background-color: rgb(27, 29, 30); text-decoration-thickness: initial; text-decoration-style: initial; text-decoration-color: initial; display: inline !important; float: none;&quot;&gt;MOVIE_CAT&lt;/span&gt;" style="text;whiteSpace=wrap;html=1;" parent="1" vertex="1">
          <mxGeometry x="2810" y="-1020" width="80" height="40" as="geometry" />
        </mxCell>
        <mxCell id="_7ieRwts1pLUNNnIRrpb-70" value="&lt;span style=&quot;color: rgb(240, 240, 240); font-family: Helvetica; font-size: 12px; font-style: normal; font-variant-ligatures: normal; font-variant-caps: normal; font-weight: 400; letter-spacing: normal; orphans: 2; text-align: center; text-indent: 0px; text-transform: none; widows: 2; word-spacing: 0px; -webkit-text-stroke-width: 0px; white-space: normal; background-color: rgb(27, 29, 30); text-decoration: underline; display: inline !important; float: none;&quot;&gt;CMENU_CAT&lt;/span&gt;" style="text;whiteSpace=wrap;html=1;" parent="1" vertex="1">
          <mxGeometry x="2065" y="-1080" width="80" height="30" as="geometry" />
        </mxCell>
        <mxCell id="_7ieRwts1pLUNNnIRrpb-71" value="&lt;span style=&quot;color: rgb(240, 240, 240); font-family: Helvetica; font-size: 12px; font-style: normal; font-variant-ligatures: normal; font-variant-caps: normal; font-weight: 400; letter-spacing: normal; orphans: 2; text-align: center; text-indent: 0px; text-transform: none; widows: 2; word-spacing: 0px; -webkit-text-stroke-width: 0px; white-space: normal; background-color: rgb(27, 29, 30); text-decoration-thickness: initial; text-decoration-style: initial; text-decoration-color: initial; display: inline !important; float: none;&quot;&gt;MOVIE_CAT&lt;/span&gt;" style="text;whiteSpace=wrap;html=1;" parent="1" vertex="1">
          <mxGeometry x="1439" y="-224.5" width="80" height="40" as="geometry" />
        </mxCell>
        <mxCell id="_7ieRwts1pLUNNnIRrpb-72" value="&lt;span style=&quot;color: rgb(240, 240, 240); font-family: Helvetica; font-size: 12px; font-style: normal; font-variant-ligatures: normal; font-variant-caps: normal; font-weight: 400; letter-spacing: normal; orphans: 2; text-align: center; text-indent: 0px; text-transform: none; widows: 2; word-spacing: 0px; -webkit-text-stroke-width: 0px; white-space: normal; background-color: rgb(27, 29, 30); text-decoration-thickness: initial; text-decoration-style: initial; text-decoration-color: initial; display: inline !important; float: none;&quot;&gt;AUTH_GATE_STATS&lt;/span&gt;" style="text;whiteSpace=wrap;html=1;" parent="1" vertex="1">
          <mxGeometry x="1155" y="-984.56" width="120" height="30" as="geometry" />
        </mxCell>
        <mxCell id="_7ieRwts1pLUNNnIRrpb-73" value="&lt;span style=&quot;color: rgb(240, 240, 240); font-family: Helvetica; font-size: 12px; font-style: normal; font-variant-ligatures: normal; font-variant-caps: normal; font-weight: 400; letter-spacing: normal; orphans: 2; text-align: center; text-indent: 0px; text-transform: none; widows: 2; word-spacing: 0px; -webkit-text-stroke-width: 0px; white-space: normal; background-color: rgb(27, 29, 30); text-decoration: underline; display: inline !important; float: none;&quot;&gt;CMENU_CAT&lt;/span&gt;" style="text;whiteSpace=wrap;html=1;" parent="1" vertex="1">
          <mxGeometry x="280" y="-286.5" width="80" height="40" as="geometry" />
        </mxCell>
        <mxCell id="fk4BfuyukFRPb7nqBHwW-280" value="" style="rounded=0;whiteSpace=wrap;html=1;fillColor=#d80073;opacity=15;strokeColor=#A50040;fontColor=#ffffff;" parent="1" vertex="1">
          <mxGeometry x="3750" y="-656" width="390" height="150" as="geometry" />
        </mxCell>
        <mxCell id="fk4BfuyukFRPb7nqBHwW-275" value="" style="rounded=0;whiteSpace=wrap;html=1;fillColor=#e3c800;opacity=15;strokeColor=#B09500;fontColor=#000000;" parent="1" vertex="1">
          <mxGeometry x="3750" y="-432" width="390" height="150" as="geometry" />
        </mxCell>
        <mxCell id="fk4BfuyukFRPb7nqBHwW-225" style="edgeStyle=orthogonalEdgeStyle;rounded=0;orthogonalLoop=1;jettySize=auto;html=1;entryX=0.5;entryY=0;entryDx=0;entryDy=0;strokeColor=#CC00CC;" parent="1" source="fk4BfuyukFRPb7nqBHwW-200" target="fk4BfuyukFRPb7nqBHwW-201" edge="1">
          <mxGeometry relative="1" as="geometry" />
        </mxCell>
        <mxCell id="fk4BfuyukFRPb7nqBHwW-200" value="" style="shape=waypoint;sketch=0;size=6;pointerEvents=1;points=[];fillColor=none;resizable=0;rotatable=0;perimeter=centerPerimeter;snapToPoint=1;strokeColor=#CC00CC;" parent="1" vertex="1">
          <mxGeometry x="3815" y="-955" width="20" height="20" as="geometry" />
        </mxCell>
        <mxCell id="fk4BfuyukFRPb7nqBHwW-230" style="edgeStyle=orthogonalEdgeStyle;rounded=0;orthogonalLoop=1;jettySize=auto;html=1;exitX=0.5;exitY=1;exitDx=0;exitDy=0;entryX=0.5;entryY=0;entryDx=0;entryDy=0;" parent="1" source="fk4BfuyukFRPb7nqBHwW-201" target="fk4BfuyukFRPb7nqBHwW-229" edge="1">
          <mxGeometry relative="1" as="geometry" />
        </mxCell>
        <mxCell id="fk4BfuyukFRPb7nqBHwW-201" value="OUTPUT&lt;div&gt;&lt;br&gt;&lt;/div&gt;&lt;div&gt;MOVIE_CONFIRM&lt;/div&gt;" style="shape=parallelogram;perimeter=parallelogramPerimeter;whiteSpace=wrap;html=1;fixedSize=1;" parent="1" vertex="1">
          <mxGeometry x="3750" y="-885" width="150" height="59.25" as="geometry" />
        </mxCell>
        <mxCell id="fk4BfuyukFRPb7nqBHwW-232" style="edgeStyle=orthogonalEdgeStyle;rounded=0;orthogonalLoop=1;jettySize=auto;html=1;exitX=0.5;exitY=1;exitDx=0;exitDy=0;entryX=0.5;entryY=0;entryDx=0;entryDy=0;" parent="1" source="fk4BfuyukFRPb7nqBHwW-227" target="fk4BfuyukFRPb7nqBHwW-228" edge="1">
          <mxGeometry relative="1" as="geometry" />
        </mxCell>
        <mxCell id="fk4BfuyukFRPb7nqBHwW-272" value="Y" style="edgeStyle=orthogonalEdgeStyle;rounded=0;orthogonalLoop=1;jettySize=auto;html=1;exitX=1;exitY=0.5;exitDx=0;exitDy=0;fillColor=#d80073;strokeColor=#A50040;" parent="1" source="fk4BfuyukFRPb7nqBHwW-227" target="fk4BfuyukFRPb7nqBHwW-269" edge="1">
          <mxGeometry relative="1" as="geometry" />
        </mxCell>
        <mxCell id="fk4BfuyukFRPb7nqBHwW-227" value="MOVIE_ICONFIRM" style="rhombus;whiteSpace=wrap;html=1;" parent="1" vertex="1">
          <mxGeometry x="3750" y="-654.5" width="150" height="150" as="geometry" />
        </mxCell>
        <mxCell id="fk4BfuyukFRPb7nqBHwW-270" value="DEFAULT" style="edgeStyle=orthogonalEdgeStyle;rounded=0;orthogonalLoop=1;jettySize=auto;html=1;exitX=0.5;exitY=1;exitDx=0;exitDy=0;" parent="1" source="fk4BfuyukFRPb7nqBHwW-228" target="fk4BfuyukFRPb7nqBHwW-267" edge="1">
          <mxGeometry relative="1" as="geometry">
            <Array as="points">
              <mxPoint x="3825" y="-145" />
              <mxPoint x="3585" y="-145" />
            </Array>
          </mxGeometry>
        </mxCell>
        <mxCell id="fk4BfuyukFRPb7nqBHwW-228" value="MOVIE_ICONFIRM" style="rhombus;whiteSpace=wrap;html=1;" parent="1" vertex="1">
          <mxGeometry x="3750" y="-432" width="150" height="150" as="geometry" />
        </mxCell>
        <mxCell id="fk4BfuyukFRPb7nqBHwW-231" style="edgeStyle=orthogonalEdgeStyle;rounded=0;orthogonalLoop=1;jettySize=auto;html=1;exitX=0.5;exitY=1;exitDx=0;exitDy=0;entryX=0.5;entryY=0;entryDx=0;entryDy=0;" parent="1" source="fk4BfuyukFRPb7nqBHwW-229" target="fk4BfuyukFRPb7nqBHwW-227" edge="1">
          <mxGeometry relative="1" as="geometry" />
        </mxCell>
        <mxCell id="fk4BfuyukFRPb7nqBHwW-229" value="INPUT&lt;div&gt;&lt;br&gt;&lt;/div&gt;&lt;div&gt;MOVIE_ICONFIRM&lt;/div&gt;" style="shape=parallelogram;perimeter=parallelogramPerimeter;whiteSpace=wrap;html=1;fixedSize=1;strokeColor=#FFFFFF;" parent="1" vertex="1">
          <mxGeometry x="3750" y="-782" width="150" height="60" as="geometry" />
        </mxCell>
        <mxCell id="fk4BfuyukFRPb7nqBHwW-271" style="edgeStyle=orthogonalEdgeStyle;rounded=0;orthogonalLoop=1;jettySize=auto;html=1;exitX=0.5;exitY=0;exitDx=0;exitDy=0;entryX=0;entryY=0.5;entryDx=0;entryDy=0;" parent="1" source="fk4BfuyukFRPb7nqBHwW-267" target="fk4BfuyukFRPb7nqBHwW-201" edge="1">
          <mxGeometry relative="1" as="geometry">
            <Array as="points">
              <mxPoint x="3585" y="-855" />
            </Array>
          </mxGeometry>
        </mxCell>
        <mxCell id="fk4BfuyukFRPb7nqBHwW-267" value="&lt;span style=&quot;font-weight: normal;&quot;&gt;CLEAR_SCREEN&lt;/span&gt;" style="rounded=0;whiteSpace=wrap;html=1;fontStyle=1" parent="1" vertex="1">
          <mxGeometry x="3510" y="-587.37" width="150" height="60" as="geometry" />
        </mxCell>
        <mxCell id="fk4BfuyukFRPb7nqBHwW-269" value="" style="shape=waypoint;sketch=0;size=6;pointerEvents=1;points=[];fillColor=#d80073;resizable=0;rotatable=0;perimeter=centerPerimeter;snapToPoint=1;fontColor=#ffffff;strokeColor=#A50040;" parent="1" vertex="1">
          <mxGeometry x="4040" y="-591" width="20" height="20" as="geometry" />
        </mxCell>
        <mxCell id="fk4BfuyukFRPb7nqBHwW-273" value="" style="shape=waypoint;sketch=0;size=6;pointerEvents=1;points=[];fillColor=#e3c800;resizable=0;rotatable=0;perimeter=centerPerimeter;snapToPoint=1;fontColor=#000000;strokeColor=#B09500;" parent="1" vertex="1">
          <mxGeometry x="4040" y="-367" width="20" height="20" as="geometry" />
        </mxCell>
        <mxCell id="fk4BfuyukFRPb7nqBHwW-274" value="N" style="edgeStyle=orthogonalEdgeStyle;rounded=0;orthogonalLoop=1;jettySize=auto;html=1;entryX=0.209;entryY=0.303;entryDx=0;entryDy=0;entryPerimeter=0;fillColor=#e3c800;strokeColor=#B09500;" parent="1" source="fk4BfuyukFRPb7nqBHwW-228" target="fk4BfuyukFRPb7nqBHwW-273" edge="1">
          <mxGeometry relative="1" as="geometry" />
        </mxCell>
        <mxCell id="fk4BfuyukFRPb7nqBHwW-285" value="FLOOR PLAN OR TIME OF MOVIE" style="text;html=1;align=center;verticalAlign=middle;resizable=0;points=[];autosize=1;strokeColor=none;fillColor=none;" parent="1" vertex="1">
          <mxGeometry x="3920" y="-647" width="210" height="30" as="geometry" />
        </mxCell>
        <mxCell id="fk4BfuyukFRPb7nqBHwW-344" value="BACK / UNDO" style="text;html=1;align=center;verticalAlign=middle;whiteSpace=wrap;rounded=0;" parent="1" vertex="1">
          <mxGeometry x="3893" y="-410" width="237" height="30" as="geometry" />
        </mxCell>
        <mxCell id="_7ieRwts1pLUNNnIRrpb-74" value="&lt;span style=&quot;color: rgb(240, 240, 240); font-family: Helvetica; font-size: 12px; font-style: normal; font-variant-ligatures: normal; font-variant-caps: normal; font-weight: 400; letter-spacing: normal; orphans: 2; text-align: center; text-indent: 0px; text-transform: none; widows: 2; word-spacing: 0px; -webkit-text-stroke-width: 0px; white-space: normal; background-color: rgb(27, 29, 30); text-decoration-thickness: initial; text-decoration-style: initial; text-decoration-color: initial; display: inline !important; float: none;&quot;&gt;MOVIE_ISELECT&lt;/span&gt;" style="text;whiteSpace=wrap;html=1;" parent="1" vertex="1">
          <mxGeometry x="3775" y="-984.94" width="100" height="40" as="geometry" />
        </mxCell>
        <mxCell id="_7ieRwts1pLUNNnIRrpb-77" value="" style="rounded=0;whiteSpace=wrap;html=1;opacity=15;fillColor=#007000;" parent="1" vertex="1">
          <mxGeometry x="5380" y="-370.5" width="460" height="150" as="geometry" />
        </mxCell>
        <mxCell id="_7ieRwts1pLUNNnIRrpb-39" value="" style="rounded=0;whiteSpace=wrap;html=1;fillColor=#fa6800;opacity=15;strokeColor=#C73500;fontColor=#000000;" parent="1" vertex="1">
          <mxGeometry x="5380" y="-556" width="460" height="150" as="geometry" />
        </mxCell>
        <mxCell id="fk4BfuyukFRPb7nqBHwW-389" value="" style="rounded=0;whiteSpace=wrap;html=1;fillColor=#00FF80;opacity=15;strokeColor=#B09500;fontColor=#000000;" parent="1" vertex="1">
          <mxGeometry x="5380" y="-746" width="460" height="150" as="geometry" />
        </mxCell>
        <mxCell id="fk4BfuyukFRPb7nqBHwW-380" value="" style="rounded=0;whiteSpace=wrap;html=1;fillColor=#e3c800;opacity=15;strokeColor=#B09500;fontColor=#000000;" parent="1" vertex="1">
          <mxGeometry x="5380" y="-188" width="460" height="150" as="geometry" />
        </mxCell>
        <mxCell id="fk4BfuyukFRPb7nqBHwW-319" value="" style="shape=waypoint;sketch=0;size=6;pointerEvents=1;points=[];fillColor=none;resizable=0;rotatable=0;perimeter=centerPerimeter;snapToPoint=1;strokeColor=#66FFB3;" parent="1" vertex="1">
          <mxGeometry x="5450" y="-1036" width="20" height="20" as="geometry" />
        </mxCell>
        <mxCell id="fk4BfuyukFRPb7nqBHwW-323" style="edgeStyle=orthogonalEdgeStyle;rounded=0;orthogonalLoop=1;jettySize=auto;html=1;exitX=0.5;exitY=1;exitDx=0;exitDy=0;entryX=0.5;entryY=0;entryDx=0;entryDy=0;" parent="1" source="fk4BfuyukFRPb7nqBHwW-320" target="fk4BfuyukFRPb7nqBHwW-321" edge="1">
          <mxGeometry relative="1" as="geometry" />
        </mxCell>
        <mxCell id="fk4BfuyukFRPb7nqBHwW-320" value="OUTPUT&lt;div&gt;&lt;br&gt;&lt;/div&gt;&lt;div&gt;SEAT_SELECT_CAT&lt;/div&gt;" style="shape=parallelogram;perimeter=parallelogramPerimeter;whiteSpace=wrap;html=1;fixedSize=1;" parent="1" vertex="1">
          <mxGeometry x="5380" y="-980.56" width="150" height="59.25" as="geometry" />
        </mxCell>
        <mxCell id="fk4BfuyukFRPb7nqBHwW-325" style="edgeStyle=orthogonalEdgeStyle;rounded=0;orthogonalLoop=1;jettySize=auto;html=1;exitX=0.5;exitY=1;exitDx=0;exitDy=0;entryX=0.5;entryY=0;entryDx=0;entryDy=0;" parent="1" source="fk4BfuyukFRPb7nqBHwW-321" target="fk4BfuyukFRPb7nqBHwW-324" edge="1">
          <mxGeometry relative="1" as="geometry" />
        </mxCell>
        <mxCell id="fk4BfuyukFRPb7nqBHwW-321" value="INPUT&lt;div&gt;&lt;br&gt;&lt;/div&gt;&lt;div&gt;SEAT_SELECT_CAT&lt;br&gt;&lt;/div&gt;" style="shape=parallelogram;perimeter=parallelogramPerimeter;whiteSpace=wrap;html=1;fixedSize=1;strokeColor=#FFFFFF;" parent="1" vertex="1">
          <mxGeometry x="5380" y="-863.06" width="150" height="60" as="geometry" />
        </mxCell>
        <mxCell id="fk4BfuyukFRPb7nqBHwW-322" style="edgeStyle=orthogonalEdgeStyle;rounded=0;orthogonalLoop=1;jettySize=auto;html=1;entryX=0.539;entryY=-0.007;entryDx=0;entryDy=0;entryPerimeter=0;strokeColor=#66FFB3;" parent="1" source="fk4BfuyukFRPb7nqBHwW-319" target="fk4BfuyukFRPb7nqBHwW-320" edge="1">
          <mxGeometry relative="1" as="geometry" />
        </mxCell>
        <mxCell id="fk4BfuyukFRPb7nqBHwW-334" style="edgeStyle=orthogonalEdgeStyle;rounded=0;orthogonalLoop=1;jettySize=auto;html=1;exitX=0.5;exitY=1;exitDx=0;exitDy=0;entryX=0.5;entryY=0;entryDx=0;entryDy=0;" parent="1" source="fk4BfuyukFRPb7nqBHwW-324" target="fk4BfuyukFRPb7nqBHwW-329" edge="1">
          <mxGeometry relative="1" as="geometry" />
        </mxCell>
        <mxCell id="fk4BfuyukFRPb7nqBHwW-324" value="SEAT_SELECT_CAT" style="rhombus;whiteSpace=wrap;html=1;" parent="1" vertex="1">
          <mxGeometry x="5380" y="-746" width="150" height="150" as="geometry" />
        </mxCell>
        <mxCell id="fk4BfuyukFRPb7nqBHwW-368" style="edgeStyle=orthogonalEdgeStyle;rounded=0;orthogonalLoop=1;jettySize=auto;html=1;exitX=0.5;exitY=1;exitDx=0;exitDy=0;entryX=0.5;entryY=0;entryDx=0;entryDy=0;" parent="1" source="fk4BfuyukFRPb7nqBHwW-329" target="fk4BfuyukFRPb7nqBHwW-367" edge="1">
          <mxGeometry relative="1" as="geometry" />
        </mxCell>
        <mxCell id="fk4BfuyukFRPb7nqBHwW-329" value="SEAT_SELECT_CAT" style="rhombus;whiteSpace=wrap;html=1;" parent="1" vertex="1">
          <mxGeometry x="5380" y="-556" width="150" height="150" as="geometry" />
        </mxCell>
        <mxCell id="fk4BfuyukFRPb7nqBHwW-333" style="edgeStyle=orthogonalEdgeStyle;rounded=0;orthogonalLoop=1;jettySize=auto;html=1;exitX=0.5;exitY=0;exitDx=0;exitDy=0;entryX=0;entryY=0.5;entryDx=0;entryDy=0;" parent="1" source="fk4BfuyukFRPb7nqBHwW-330" target="fk4BfuyukFRPb7nqBHwW-321" edge="1">
          <mxGeometry relative="1" as="geometry">
            <Array as="points">
              <mxPoint x="5285" y="-833.06" />
            </Array>
          </mxGeometry>
        </mxCell>
        <mxCell id="fk4BfuyukFRPb7nqBHwW-330" value="&lt;span style=&quot;font-weight: normal;&quot;&gt;CLEAR_SCREEN&lt;/span&gt;" style="rounded=0;whiteSpace=wrap;html=1;fontStyle=1" parent="1" vertex="1">
          <mxGeometry x="5210" y="-662.31" width="150" height="60" as="geometry" />
        </mxCell>
        <mxCell id="fk4BfuyukFRPb7nqBHwW-369" value="DEFAULT" style="edgeStyle=orthogonalEdgeStyle;rounded=0;orthogonalLoop=1;jettySize=auto;html=1;entryX=0.5;entryY=1;entryDx=0;entryDy=0;exitX=0.5;exitY=1;exitDx=0;exitDy=0;" parent="1" source="fk4BfuyukFRPb7nqBHwW-375" target="fk4BfuyukFRPb7nqBHwW-330" edge="1">
          <mxGeometry relative="1" as="geometry">
            <mxPoint x="5320" y="-106" as="sourcePoint" />
          </mxGeometry>
        </mxCell>
        <mxCell id="fk4BfuyukFRPb7nqBHwW-376" style="edgeStyle=orthogonalEdgeStyle;rounded=0;orthogonalLoop=1;jettySize=auto;html=1;exitX=0.5;exitY=1;exitDx=0;exitDy=0;entryX=0.5;entryY=0;entryDx=0;entryDy=0;" parent="1" source="fk4BfuyukFRPb7nqBHwW-367" target="fk4BfuyukFRPb7nqBHwW-375" edge="1">
          <mxGeometry relative="1" as="geometry" />
        </mxCell>
        <mxCell id="fk4BfuyukFRPb7nqBHwW-385" value="P" style="edgeStyle=orthogonalEdgeStyle;rounded=0;orthogonalLoop=1;jettySize=auto;html=1;exitX=1;exitY=0.5;exitDx=0;exitDy=0;entryX=0.26;entryY=0.555;entryDx=0;entryDy=0;entryPerimeter=0;fillColor=#d5e8d4;gradientColor=#97d077;strokeColor=#007000;" parent="1" source="fk4BfuyukFRPb7nqBHwW-367" target="_7ieRwts1pLUNNnIRrpb-76" edge="1">
          <mxGeometry relative="1" as="geometry">
            <mxPoint x="5790" y="-296" as="targetPoint" />
          </mxGeometry>
        </mxCell>
        <mxCell id="fk4BfuyukFRPb7nqBHwW-367" value="SEAT_SELECT_CAT" style="rhombus;whiteSpace=wrap;html=1;" parent="1" vertex="1">
          <mxGeometry x="5380" y="-370.5" width="150" height="150" as="geometry" />
        </mxCell>
        <mxCell id="fk4BfuyukFRPb7nqBHwW-375" value="SEAT_SELECT_CAT" style="rhombus;whiteSpace=wrap;html=1;" parent="1" vertex="1">
          <mxGeometry x="5380" y="-188" width="150" height="150" as="geometry" />
        </mxCell>
        <mxCell id="fk4BfuyukFRPb7nqBHwW-381" value="" style="shape=waypoint;sketch=0;size=6;pointerEvents=1;points=[];fillColor=#e3c800;resizable=0;rotatable=0;perimeter=centerPerimeter;snapToPoint=1;fontColor=#000000;strokeColor=#B09500;" parent="1" vertex="1">
          <mxGeometry x="5780" y="-123" width="20" height="20" as="geometry" />
        </mxCell>
        <mxCell id="fk4BfuyukFRPb7nqBHwW-382" value="B" style="edgeStyle=orthogonalEdgeStyle;rounded=0;orthogonalLoop=1;jettySize=auto;html=1;exitX=1;exitY=0.5;exitDx=0;exitDy=0;entryX=0.7;entryY=0.813;entryDx=0;entryDy=0;entryPerimeter=0;fillColor=#e3c800;strokeColor=#B09500;" parent="1" source="fk4BfuyukFRPb7nqBHwW-375" target="fk4BfuyukFRPb7nqBHwW-381" edge="1">
          <mxGeometry relative="1" as="geometry" />
        </mxCell>
        <mxCell id="fk4BfuyukFRPb7nqBHwW-384" value="BACK / UNDO" style="text;html=1;align=center;verticalAlign=middle;whiteSpace=wrap;rounded=0;" parent="1" vertex="1">
          <mxGeometry x="5580" y="-164" width="237" height="30" as="geometry" />
        </mxCell>
        <mxCell id="fk4BfuyukFRPb7nqBHwW-386" value="CONFIRM PAYMENT" style="text;html=1;align=center;verticalAlign=middle;resizable=0;points=[];autosize=1;strokeColor=none;fillColor=none;" parent="1" vertex="1">
          <mxGeometry x="5625" y="-346" width="140" height="30" as="geometry" />
        </mxCell>
        <mxCell id="fk4BfuyukFRPb7nqBHwW-387" value="REMOVE MODE" style="text;html=1;align=center;verticalAlign=middle;resizable=0;points=[];autosize=1;strokeColor=none;fillColor=none;" parent="1" vertex="1">
          <mxGeometry x="5640" y="-536" width="110" height="30" as="geometry" />
        </mxCell>
        <mxCell id="fk4BfuyukFRPb7nqBHwW-388" value="SELECT MODE" style="text;html=1;align=center;verticalAlign=middle;resizable=0;points=[];autosize=1;strokeColor=none;fillColor=none;" parent="1" vertex="1">
          <mxGeometry x="5643.5" y="-726" width="110" height="30" as="geometry" />
        </mxCell>
        <mxCell id="5m1O86NGaFOG43O_L-Pf-8" value="" style="shape=waypoint;sketch=0;size=6;pointerEvents=1;points=[];fillColor=none;resizable=0;rotatable=0;perimeter=centerPerimeter;snapToPoint=1;strokeColor=#00FF80;" parent="1" vertex="1">
          <mxGeometry x="5780" y="-681" width="20" height="20" as="geometry" />
        </mxCell>
        <mxCell id="5m1O86NGaFOG43O_L-Pf-9" value="S" style="edgeStyle=orthogonalEdgeStyle;rounded=0;orthogonalLoop=1;jettySize=auto;html=1;exitX=1;exitY=0.5;exitDx=0;exitDy=0;entryX=0.447;entryY=0.833;entryDx=0;entryDy=0;entryPerimeter=0;strokeColor=#00FF80;" parent="1" source="fk4BfuyukFRPb7nqBHwW-324" target="5m1O86NGaFOG43O_L-Pf-8" edge="1">
          <mxGeometry relative="1" as="geometry" />
        </mxCell>
        <mxCell id="_7ieRwts1pLUNNnIRrpb-26" value="B" style="edgeStyle=orthogonalEdgeStyle;rounded=0;orthogonalLoop=1;jettySize=auto;html=1;entryX=1;entryY=0.25;entryDx=0;entryDy=0;strokeColor=#66FFB3;" parent="1" source="_7ieRwts1pLUNNnIRrpb-25" target="fk4BfuyukFRPb7nqBHwW-320" edge="1">
          <mxGeometry relative="1" as="geometry">
            <Array as="points">
              <mxPoint x="5757" y="-965" />
              <mxPoint x="5670" y="-965" />
            </Array>
          </mxGeometry>
        </mxCell>
        <mxCell id="_7ieRwts1pLUNNnIRrpb-25" value="" style="shape=waypoint;sketch=0;size=6;pointerEvents=1;points=[];fillColor=none;resizable=0;rotatable=0;perimeter=centerPerimeter;snapToPoint=1;strokeColor=#66FFB3;" parent="1" vertex="1">
          <mxGeometry x="5746.5" y="-1000.56" width="20" height="20" as="geometry" />
        </mxCell>
        <mxCell id="_7ieRwts1pLUNNnIRrpb-40" value="" style="shape=waypoint;sketch=0;size=6;pointerEvents=1;points=[];fillColor=#fa6800;resizable=0;rotatable=0;perimeter=centerPerimeter;snapToPoint=1;strokeColor=#C73500;fontColor=#000000;" parent="1" vertex="1">
          <mxGeometry x="5780" y="-491" width="20" height="20" as="geometry" />
        </mxCell>
        <mxCell id="_7ieRwts1pLUNNnIRrpb-41" value="R" style="edgeStyle=orthogonalEdgeStyle;rounded=0;orthogonalLoop=1;jettySize=auto;html=1;exitX=1;exitY=0.5;exitDx=0;exitDy=0;entryX=0.893;entryY=0.826;entryDx=0;entryDy=0;entryPerimeter=0;fillColor=#fa6800;strokeColor=#C73500;" parent="1" source="fk4BfuyukFRPb7nqBHwW-329" target="_7ieRwts1pLUNNnIRrpb-40" edge="1">
          <mxGeometry relative="1" as="geometry" />
        </mxCell>
        <mxCell id="_7ieRwts1pLUNNnIRrpb-62" value="&lt;span style=&quot;color: rgb(240, 240, 240); font-family: Helvetica; font-size: 12px; font-style: normal; font-variant-ligatures: normal; font-variant-caps: normal; font-weight: 400; letter-spacing: normal; orphans: 2; text-align: center; text-indent: 0px; text-transform: none; widows: 2; word-spacing: 0px; -webkit-text-stroke-width: 0px; white-space: normal; background-color: rgb(27, 29, 30); text-decoration-thickness: initial; text-decoration-style: initial; text-decoration-color: initial; display: inline !important; float: none;&quot;&gt;SEAT_EDIT&lt;/span&gt;" style="text;whiteSpace=wrap;html=1;" parent="1" vertex="1">
          <mxGeometry x="5720" y="-1025.56" width="66.5" height="31" as="geometry" />
        </mxCell>
        <mxCell id="_7ieRwts1pLUNNnIRrpb-63" value="&lt;span style=&quot;color: rgb(240, 240, 240); font-family: Helvetica; font-size: 12px; font-style: normal; font-variant-ligatures: normal; font-variant-caps: normal; font-weight: 400; letter-spacing: normal; orphans: 2; text-align: center; text-indent: 0px; text-transform: none; widows: 2; word-spacing: 0px; -webkit-text-stroke-width: 0px; white-space: normal; background-color: rgb(27, 29, 30); text-decoration-thickness: initial; text-decoration-style: initial; text-decoration-color: initial; display: inline !important; float: none;&quot;&gt;SEAT_CAT&lt;/span&gt;" style="text;whiteSpace=wrap;html=1;" parent="1" vertex="1">
          <mxGeometry x="5430" y="-1061" width="60" height="25" as="geometry" />
        </mxCell>
        <mxCell id="_7ieRwts1pLUNNnIRrpb-76" value="" style="shape=waypoint;sketch=0;size=6;pointerEvents=1;points=[];fillColor=#007000;resizable=0;rotatable=0;perimeter=centerPerimeter;snapToPoint=1;strokeColor=#007000;fontColor=#000000;" parent="1" vertex="1">
          <mxGeometry x="5780" y="-305.5" width="20" height="20" as="geometry" />
        </mxCell>
        <mxCell id="_7ieRwts1pLUNNnIRrpb-95" style="edgeStyle=orthogonalEdgeStyle;rounded=0;orthogonalLoop=1;jettySize=auto;html=1;strokeColor=#007000;" parent="1" source="_7ieRwts1pLUNNnIRrpb-80" target="_7ieRwts1pLUNNnIRrpb-85" edge="1">
          <mxGeometry relative="1" as="geometry">
            <mxPoint x="5419.941176470588" y="180" as="targetPoint" />
          </mxGeometry>
        </mxCell>
        <mxCell id="_7ieRwts1pLUNNnIRrpb-80" value="" style="shape=waypoint;sketch=0;size=6;pointerEvents=1;points=[];fillColor=#007000;resizable=0;rotatable=0;perimeter=centerPerimeter;snapToPoint=1;strokeColor=#007000;fontColor=#000000;" parent="1" vertex="1">
          <mxGeometry x="5410" y="130" width="20" height="20" as="geometry" />
        </mxCell>
        <mxCell id="_7ieRwts1pLUNNnIRrpb-81" value="SHOW ITEMS" style="text;html=1;align=center;verticalAlign=middle;resizable=0;points=[];autosize=1;strokeColor=none;fillColor=none;" parent="1" vertex="1">
          <mxGeometry x="5795" y="30" width="100" height="30" as="geometry" />
        </mxCell>
        <mxCell id="_7ieRwts1pLUNNnIRrpb-99" value="" style="edgeStyle=orthogonalEdgeStyle;rounded=0;orthogonalLoop=1;jettySize=auto;html=1;" parent="1" source="_7ieRwts1pLUNNnIRrpb-85" target="_7ieRwts1pLUNNnIRrpb-98" edge="1">
          <mxGeometry relative="1" as="geometry" />
        </mxCell>
        <mxCell id="_7ieRwts1pLUNNnIRrpb-85" value="OUTPUT&lt;div&gt;&lt;br&gt;&lt;/div&gt;&lt;div&gt;ITEMS_CFMSG&lt;/div&gt;" style="shape=parallelogram;perimeter=parallelogramPerimeter;whiteSpace=wrap;html=1;fixedSize=1;strokeColor=#FFFFFF;" parent="1" vertex="1">
          <mxGeometry x="5345" y="180" width="150" height="60" as="geometry" />
        </mxCell>
        <mxCell id="_7ieRwts1pLUNNnIRrpb-103" style="edgeStyle=orthogonalEdgeStyle;rounded=0;orthogonalLoop=1;jettySize=auto;html=1;exitX=0.5;exitY=1;exitDx=0;exitDy=0;entryX=0.5;entryY=0;entryDx=0;entryDy=0;" parent="1" source="_7ieRwts1pLUNNnIRrpb-86" target="_7ieRwts1pLUNNnIRrpb-101" edge="1">
          <mxGeometry relative="1" as="geometry" />
        </mxCell>
        <mxCell id="_7ieRwts1pLUNNnIRrpb-109" value="Y" style="edgeStyle=orthogonalEdgeStyle;rounded=0;orthogonalLoop=1;jettySize=auto;html=1;exitX=1;exitY=0.5;exitDx=0;exitDy=0;strokeColor=#4D9900;" parent="1" source="_7ieRwts1pLUNNnIRrpb-86" target="_7ieRwts1pLUNNnIRrpb-105" edge="1">
          <mxGeometry relative="1" as="geometry" />
        </mxCell>
        <mxCell id="_7ieRwts1pLUNNnIRrpb-86" value="ITEMS_CFREPLY" style="rhombus;whiteSpace=wrap;html=1;" parent="1" vertex="1">
          <mxGeometry x="5345" y="540" width="150" height="150" as="geometry" />
        </mxCell>
        <mxCell id="_7ieRwts1pLUNNnIRrpb-93" style="edgeStyle=orthogonalEdgeStyle;rounded=0;orthogonalLoop=1;jettySize=auto;html=1;exitX=0.5;exitY=0;exitDx=0;exitDy=0;entryX=0.5;entryY=1;entryDx=0;entryDy=0;" parent="1" source="_7ieRwts1pLUNNnIRrpb-90" target="5m1O86NGaFOG43O_L-Pf-5" edge="1">
          <mxGeometry relative="1" as="geometry" />
        </mxCell>
        <mxCell id="_7ieRwts1pLUNNnIRrpb-90" value="&lt;span style=&quot;font-weight: 400;&quot;&gt;SEAT_COUNT&lt;/span&gt;" style="rounded=0;whiteSpace=wrap;html=1;fontStyle=1" parent="1" vertex="1">
          <mxGeometry x="6430" y="-675.75" width="320" height="60" as="geometry" />
        </mxCell>
        <mxCell id="_7ieRwts1pLUNNnIRrpb-97" value="&lt;span style=&quot;color: rgb(240, 240, 240); font-family: Helvetica; font-size: 12px; font-style: normal; font-variant-ligatures: normal; font-variant-caps: normal; font-weight: 400; letter-spacing: normal; orphans: 2; text-align: center; text-indent: 0px; text-transform: none; widows: 2; word-spacing: 0px; -webkit-text-stroke-width: 0px; white-space: normal; background-color: rgb(27, 29, 30); text-decoration-thickness: initial; text-decoration-style: initial; text-decoration-color: initial; display: inline !important; float: none;&quot;&gt;SEAT_SELECT_CAT&lt;/span&gt;" style="text;whiteSpace=wrap;html=1;" parent="1" vertex="1">
          <mxGeometry x="5360" y="110" width="120" height="30" as="geometry" />
        </mxCell>
        <mxCell id="_7ieRwts1pLUNNnIRrpb-100" style="edgeStyle=orthogonalEdgeStyle;rounded=0;orthogonalLoop=1;jettySize=auto;html=1;exitX=0.5;exitY=1;exitDx=0;exitDy=0;entryX=0.5;entryY=0;entryDx=0;entryDy=0;" parent="1" source="_7ieRwts1pLUNNnIRrpb-98" target="_7ieRwts1pLUNNnIRrpb-86" edge="1">
          <mxGeometry relative="1" as="geometry" />
        </mxCell>
        <mxCell id="_7ieRwts1pLUNNnIRrpb-98" value="INPUT&lt;br&gt;&lt;br&gt;ITEMS_CFREPLY" style="shape=parallelogram;perimeter=parallelogramPerimeter;whiteSpace=wrap;html=1;fixedSize=1;strokeColor=#FFFFFF;" parent="1" vertex="1">
          <mxGeometry x="5345" y="420" width="150" height="60" as="geometry" />
        </mxCell>
        <mxCell id="_7ieRwts1pLUNNnIRrpb-116" value="DEFAULT" style="edgeStyle=orthogonalEdgeStyle;rounded=0;orthogonalLoop=1;jettySize=auto;html=1;exitX=0.5;exitY=1;exitDx=0;exitDy=0;entryX=0.5;entryY=1;entryDx=0;entryDy=0;" parent="1" source="_7ieRwts1pLUNNnIRrpb-101" target="_7ieRwts1pLUNNnIRrpb-115" edge="1">
          <mxGeometry relative="1" as="geometry" />
        </mxCell>
        <mxCell id="_7ieRwts1pLUNNnIRrpb-101" value="ITEMS_CFREPLY" style="rhombus;whiteSpace=wrap;html=1;" parent="1" vertex="1">
          <mxGeometry x="5345" y="745" width="150" height="150" as="geometry" />
        </mxCell>
        <mxCell id="_7ieRwts1pLUNNnIRrpb-105" value="" style="shape=waypoint;sketch=0;size=6;pointerEvents=1;points=[];fillColor=none;resizable=0;rotatable=0;perimeter=centerPerimeter;snapToPoint=1;strokeColor=#4D9900;" parent="1" vertex="1">
          <mxGeometry x="5730" y="605" width="20" height="20" as="geometry" />
        </mxCell>
        <mxCell id="_7ieRwts1pLUNNnIRrpb-106" value="" style="shape=waypoint;sketch=0;size=6;pointerEvents=1;points=[];fillColor=none;resizable=0;rotatable=0;perimeter=centerPerimeter;snapToPoint=1;strokeColor=#66FFB3;" parent="1" vertex="1">
          <mxGeometry x="5730" y="810" width="20" height="20" as="geometry" />
        </mxCell>
        <mxCell id="_7ieRwts1pLUNNnIRrpb-108" value="N" style="edgeStyle=orthogonalEdgeStyle;rounded=0;orthogonalLoop=1;jettySize=auto;html=1;exitX=1;exitY=0.5;exitDx=0;exitDy=0;entryX=0.303;entryY=0.567;entryDx=0;entryDy=0;entryPerimeter=0;strokeColor=#66FFB3;" parent="1" source="_7ieRwts1pLUNNnIRrpb-101" target="_7ieRwts1pLUNNnIRrpb-106" edge="1">
          <mxGeometry relative="1" as="geometry" />
        </mxCell>
        <mxCell id="_7ieRwts1pLUNNnIRrpb-131" value="N" style="edgeStyle=orthogonalEdgeStyle;rounded=0;orthogonalLoop=1;jettySize=auto;html=1;entryX=1;entryY=0.5;entryDx=0;entryDy=0;strokeColor=#66FFB3;" parent="1" source="_7ieRwts1pLUNNnIRrpb-110" target="fk4BfuyukFRPb7nqBHwW-320" edge="1">
          <mxGeometry relative="1" as="geometry" />
        </mxCell>
        <mxCell id="_7ieRwts1pLUNNnIRrpb-110" value="" style="shape=waypoint;sketch=0;size=6;pointerEvents=1;points=[];fillColor=none;resizable=0;rotatable=0;perimeter=centerPerimeter;snapToPoint=1;strokeColor=#66FFB3;" parent="1" vertex="1">
          <mxGeometry x="5826.5" y="-960.93" width="20" height="20" as="geometry" />
        </mxCell>
        <mxCell id="_7ieRwts1pLUNNnIRrpb-113" value="&lt;span style=&quot;color: rgb(240, 240, 240); font-family: Helvetica; font-size: 12px; font-style: normal; font-variant-ligatures: normal; font-variant-caps: normal; font-weight: 400; letter-spacing: normal; orphans: 2; text-align: center; text-indent: 0px; text-transform: none; widows: 2; word-spacing: 0px; -webkit-text-stroke-width: 0px; white-space: normal; background-color: rgb(27, 29, 30); text-decoration-thickness: initial; text-decoration-style: initial; text-decoration-color: initial; display: inline !important; float: none;&quot;&gt;ITEMS_CFREPLY&lt;/span&gt;" style="text;whiteSpace=wrap;html=1;" parent="1" vertex="1">
          <mxGeometry x="5786.5" y="-981.06" width="100" height="23" as="geometry" />
        </mxCell>
        <mxCell id="_7ieRwts1pLUNNnIRrpb-117" style="edgeStyle=orthogonalEdgeStyle;rounded=0;orthogonalLoop=1;jettySize=auto;html=1;exitX=0.5;exitY=0;exitDx=0;exitDy=0;" parent="1" source="_7ieRwts1pLUNNnIRrpb-115" target="_7ieRwts1pLUNNnIRrpb-85" edge="1">
          <mxGeometry relative="1" as="geometry">
            <mxPoint x="5354.999999999999" y="209.625" as="targetPoint" />
            <Array as="points">
              <mxPoint x="5225" y="210" />
            </Array>
          </mxGeometry>
        </mxCell>
        <mxCell id="_7ieRwts1pLUNNnIRrpb-115" value="&lt;span style=&quot;font-weight: normal;&quot;&gt;CLEAR_SCREEN&lt;/span&gt;" style="rounded=0;whiteSpace=wrap;html=1;fontStyle=1" parent="1" vertex="1">
          <mxGeometry x="5150" y="420" width="150" height="60" as="geometry" />
        </mxCell>
        <mxCell id="_7ieRwts1pLUNNnIRrpb-118" value="CASH IN &amp;amp; OUT" style="text;html=1;align=center;verticalAlign=middle;resizable=0;points=[];autosize=1;strokeColor=none;fillColor=none;" parent="1" vertex="1">
          <mxGeometry x="6655" y="30" width="110" height="30" as="geometry" />
        </mxCell>
        <mxCell id="_7ieRwts1pLUNNnIRrpb-126" style="edgeStyle=orthogonalEdgeStyle;rounded=0;orthogonalLoop=1;jettySize=auto;html=1;entryX=0.5;entryY=0;entryDx=0;entryDy=0;strokeColor=#4D9900;" parent="1" source="_7ieRwts1pLUNNnIRrpb-121" target="_7ieRwts1pLUNNnIRrpb-125" edge="1">
          <mxGeometry relative="1" as="geometry" />
        </mxCell>
        <mxCell id="_7ieRwts1pLUNNnIRrpb-121" value="" style="shape=waypoint;sketch=0;size=6;pointerEvents=1;points=[];fillColor=none;resizable=0;rotatable=0;perimeter=centerPerimeter;snapToPoint=1;strokeColor=#4D9900;" parent="1" vertex="1">
          <mxGeometry x="6150" y="110" width="20" height="20" as="geometry" />
        </mxCell>
        <mxCell id="_7ieRwts1pLUNNnIRrpb-129" style="edgeStyle=orthogonalEdgeStyle;rounded=0;orthogonalLoop=1;jettySize=auto;html=1;entryX=0.5;entryY=0;entryDx=0;entryDy=0;" parent="1" source="_7ieRwts1pLUNNnIRrpb-125" target="_7ieRwts1pLUNNnIRrpb-128" edge="1">
          <mxGeometry relative="1" as="geometry" />
        </mxCell>
        <mxCell id="_7ieRwts1pLUNNnIRrpb-125" value="OUTPUT&lt;div&gt;&lt;br&gt;&lt;/div&gt;&lt;div&gt;CASHIER&lt;/div&gt;" style="shape=parallelogram;perimeter=parallelogramPerimeter;whiteSpace=wrap;html=1;fixedSize=1;" parent="1" vertex="1">
          <mxGeometry x="6085" y="170" width="150" height="59.25" as="geometry" />
        </mxCell>
        <mxCell id="_7ieRwts1pLUNNnIRrpb-127" value="&lt;span style=&quot;color: rgb(240, 240, 240); font-family: Helvetica; font-size: 12px; font-style: normal; font-variant-ligatures: normal; font-variant-caps: normal; font-weight: 400; letter-spacing: normal; orphans: 2; text-align: center; text-indent: 0px; text-transform: none; widows: 2; word-spacing: 0px; -webkit-text-stroke-width: 0px; white-space: normal; background-color: rgb(27, 29, 30); text-decoration-thickness: initial; text-decoration-style: initial; text-decoration-color: initial; display: inline !important; float: none;&quot;&gt;ITEMS_CFREPLY&lt;/span&gt;" style="text;whiteSpace=wrap;html=1;" parent="1" vertex="1">
          <mxGeometry x="6110" y="80" width="100" height="20" as="geometry" />
        </mxCell>
        <mxCell id="_7ieRwts1pLUNNnIRrpb-133" style="edgeStyle=orthogonalEdgeStyle;rounded=0;orthogonalLoop=1;jettySize=auto;html=1;exitX=0.5;exitY=1;exitDx=0;exitDy=0;entryX=0.5;entryY=0;entryDx=0;entryDy=0;" parent="1" source="_7ieRwts1pLUNNnIRrpb-128" target="_7ieRwts1pLUNNnIRrpb-132" edge="1">
          <mxGeometry relative="1" as="geometry" />
        </mxCell>
        <mxCell id="_7ieRwts1pLUNNnIRrpb-128" value="INPUT&lt;br&gt;&lt;br&gt;CASH_INPUT" style="shape=parallelogram;perimeter=parallelogramPerimeter;whiteSpace=wrap;html=1;fixedSize=1;strokeColor=#FFFFFF;" parent="1" vertex="1">
          <mxGeometry x="6085" y="290" width="150" height="60" as="geometry" />
        </mxCell>
        <mxCell id="_7ieRwts1pLUNNnIRrpb-134" style="edgeStyle=orthogonalEdgeStyle;rounded=0;orthogonalLoop=1;jettySize=auto;html=1;exitX=0.5;exitY=1;exitDx=0;exitDy=0;" parent="1" source="_7ieRwts1pLUNNnIRrpb-132" edge="1">
          <mxGeometry relative="1" as="geometry">
            <mxPoint x="6160.000000000001" y="830" as="targetPoint" />
          </mxGeometry>
        </mxCell>
        <mxCell id="_7ieRwts1pLUNNnIRrpb-136" value="FALSE" style="edgeStyle=orthogonalEdgeStyle;rounded=0;orthogonalLoop=1;jettySize=auto;html=1;exitX=1;exitY=0.5;exitDx=0;exitDy=0;entryX=0;entryY=0.5;entryDx=0;entryDy=0;strokeColor=#66FFB3;" parent="1" source="_7ieRwts1pLUNNnIRrpb-132" target="_7ieRwts1pLUNNnIRrpb-137" edge="1">
          <mxGeometry x="0.0028" relative="1" as="geometry">
            <mxPoint x="6440" y="475" as="targetPoint" />
            <mxPoint as="offset" />
          </mxGeometry>
        </mxCell>
        <mxCell id="_7ieRwts1pLUNNnIRrpb-132" value="CASH_INPUT" style="rhombus;whiteSpace=wrap;html=1;" parent="1" vertex="1">
          <mxGeometry x="6085" y="400" width="150" height="150" as="geometry" />
        </mxCell>
        <mxCell id="_7ieRwts1pLUNNnIRrpb-145" value="" style="edgeStyle=orthogonalEdgeStyle;rounded=0;orthogonalLoop=1;jettySize=auto;html=1;strokeColor=#66FFB3;" parent="1" source="_7ieRwts1pLUNNnIRrpb-137" target="_7ieRwts1pLUNNnIRrpb-144" edge="1">
          <mxGeometry relative="1" as="geometry" />
        </mxCell>
        <mxCell id="_7ieRwts1pLUNNnIRrpb-137" value="OUTPUT&lt;div&gt;&lt;br&gt;&lt;/div&gt;&lt;div&gt;MONEY_MESSAGE&lt;/div&gt;" style="shape=parallelogram;perimeter=parallelogramPerimeter;whiteSpace=wrap;html=1;fixedSize=1;strokeColor=#66FFB3;" parent="1" vertex="1">
          <mxGeometry x="6305" y="445.37" width="150" height="59.25" as="geometry" />
        </mxCell>
        <mxCell id="_7ieRwts1pLUNNnIRrpb-140" value="" style="shape=waypoint;sketch=0;size=6;pointerEvents=1;points=[];fillColor=default;resizable=0;rotatable=0;perimeter=centerPerimeter;snapToPoint=1;strokeColor=#66FFB3;" parent="1" vertex="1">
          <mxGeometry x="6670" y="465.005" width="20" height="20" as="geometry" />
        </mxCell>
        <mxCell id="_7ieRwts1pLUNNnIRrpb-148" style="edgeStyle=orthogonalEdgeStyle;rounded=0;orthogonalLoop=1;jettySize=auto;html=1;exitX=1;exitY=0.5;exitDx=0;exitDy=0;strokeColor=#66FFB3;" parent="1" source="_7ieRwts1pLUNNnIRrpb-144" target="_7ieRwts1pLUNNnIRrpb-140" edge="1">
          <mxGeometry relative="1" as="geometry" />
        </mxCell>
        <mxCell id="_7ieRwts1pLUNNnIRrpb-144" value="SYSTEM_PAUSE" style="shape=parallelogram;perimeter=parallelogramPerimeter;whiteSpace=wrap;html=1;fixedSize=1;strokeColor=#66FFB3;" parent="1" vertex="1">
          <mxGeometry x="6465" y="445.38" width="150" height="59.25" as="geometry" />
        </mxCell>
        <mxCell id="ewS9vyXOPcBX5f5G79W1-1" value="" style="rounded=0;whiteSpace=wrap;html=1;opacity=15;fillColor=#66FFB3;strokeColor=#66FFB3;" vertex="1" parent="1">
          <mxGeometry x="4323" y="450" width="650" height="150" as="geometry" />
        </mxCell>
        <mxCell id="ewS9vyXOPcBX5f5G79W1-2" value="CASH IN &amp;amp; OUT" style="text;html=1;align=center;verticalAlign=middle;resizable=0;points=[];autosize=1;strokeColor=none;fillColor=none;" vertex="1" parent="1">
          <mxGeometry x="4893" y="80" width="110" height="30" as="geometry" />
        </mxCell>
        <mxCell id="ewS9vyXOPcBX5f5G79W1-3" style="edgeStyle=orthogonalEdgeStyle;rounded=0;orthogonalLoop=1;jettySize=auto;html=1;entryX=0.5;entryY=0;entryDx=0;entryDy=0;strokeColor=#4D9900;" edge="1" parent="1" source="ewS9vyXOPcBX5f5G79W1-4" target="ewS9vyXOPcBX5f5G79W1-6">
          <mxGeometry relative="1" as="geometry" />
        </mxCell>
        <mxCell id="ewS9vyXOPcBX5f5G79W1-4" value="" style="shape=waypoint;sketch=0;size=6;pointerEvents=1;points=[];fillColor=none;resizable=0;rotatable=0;perimeter=centerPerimeter;snapToPoint=1;strokeColor=#4D9900;" vertex="1" parent="1">
          <mxGeometry x="4388" y="160" width="20" height="20" as="geometry" />
        </mxCell>
        <mxCell id="ewS9vyXOPcBX5f5G79W1-5" style="edgeStyle=orthogonalEdgeStyle;rounded=0;orthogonalLoop=1;jettySize=auto;html=1;entryX=0.5;entryY=0;entryDx=0;entryDy=0;" edge="1" parent="1" source="ewS9vyXOPcBX5f5G79W1-6" target="ewS9vyXOPcBX5f5G79W1-9">
          <mxGeometry relative="1" as="geometry" />
        </mxCell>
        <mxCell id="ewS9vyXOPcBX5f5G79W1-6" value="OUTPUT&lt;div&gt;&lt;br&gt;&lt;/div&gt;&lt;div&gt;CASHIER&lt;/div&gt;" style="shape=parallelogram;perimeter=parallelogramPerimeter;whiteSpace=wrap;html=1;fixedSize=1;" vertex="1" parent="1">
          <mxGeometry x="4323" y="220" width="150" height="59.25" as="geometry" />
        </mxCell>
        <mxCell id="ewS9vyXOPcBX5f5G79W1-7" value="&lt;span style=&quot;color: rgb(240, 240, 240); font-family: Helvetica; font-size: 12px; font-style: normal; font-variant-ligatures: normal; font-variant-caps: normal; font-weight: 400; letter-spacing: normal; orphans: 2; text-align: center; text-indent: 0px; text-transform: none; widows: 2; word-spacing: 0px; -webkit-text-stroke-width: 0px; white-space: normal; background-color: rgb(27, 29, 30); text-decoration-thickness: initial; text-decoration-style: initial; text-decoration-color: initial; display: inline !important; float: none;&quot;&gt;ITEMS_CFREPLY&lt;/span&gt;" style="text;whiteSpace=wrap;html=1;" vertex="1" parent="1">
          <mxGeometry x="4348" y="130" width="100" height="20" as="geometry" />
        </mxCell>
        <mxCell id="ewS9vyXOPcBX5f5G79W1-8" style="edgeStyle=orthogonalEdgeStyle;rounded=0;orthogonalLoop=1;jettySize=auto;html=1;exitX=0.5;exitY=1;exitDx=0;exitDy=0;entryX=0.5;entryY=0;entryDx=0;entryDy=0;" edge="1" parent="1" source="ewS9vyXOPcBX5f5G79W1-9" target="ewS9vyXOPcBX5f5G79W1-12">
          <mxGeometry relative="1" as="geometry" />
        </mxCell>
        <mxCell id="ewS9vyXOPcBX5f5G79W1-9" value="INPUT&lt;br&gt;&lt;br&gt;CASH_INPUT" style="shape=parallelogram;perimeter=parallelogramPerimeter;whiteSpace=wrap;html=1;fixedSize=1;strokeColor=#FFFFFF;" vertex="1" parent="1">
          <mxGeometry x="4323" y="340" width="150" height="60" as="geometry" />
        </mxCell>
        <mxCell id="ewS9vyXOPcBX5f5G79W1-11" value="FALSE" style="edgeStyle=orthogonalEdgeStyle;rounded=0;orthogonalLoop=1;jettySize=auto;html=1;exitX=1;exitY=0.5;exitDx=0;exitDy=0;entryX=0;entryY=0.5;entryDx=0;entryDy=0;strokeColor=#66FFB3;" edge="1" parent="1" source="ewS9vyXOPcBX5f5G79W1-12" target="ewS9vyXOPcBX5f5G79W1-14">
          <mxGeometry x="0.0028" relative="1" as="geometry">
            <mxPoint x="4678" y="525" as="targetPoint" />
            <mxPoint as="offset" />
          </mxGeometry>
        </mxCell>
        <mxCell id="ewS9vyXOPcBX5f5G79W1-12" value="CASH_INPUT" style="rhombus;whiteSpace=wrap;html=1;" vertex="1" parent="1">
          <mxGeometry x="4323" y="450" width="150" height="150" as="geometry" />
        </mxCell>
        <mxCell id="ewS9vyXOPcBX5f5G79W1-13" value="" style="edgeStyle=orthogonalEdgeStyle;rounded=0;orthogonalLoop=1;jettySize=auto;html=1;strokeColor=#66FFB3;" edge="1" parent="1" source="ewS9vyXOPcBX5f5G79W1-14" target="ewS9vyXOPcBX5f5G79W1-17">
          <mxGeometry relative="1" as="geometry" />
        </mxCell>
        <mxCell id="ewS9vyXOPcBX5f5G79W1-14" value="OUTPUT&lt;div&gt;&lt;br&gt;&lt;/div&gt;&lt;div&gt;MONEY_MESSAGE&lt;/div&gt;" style="shape=parallelogram;perimeter=parallelogramPerimeter;whiteSpace=wrap;html=1;fixedSize=1;strokeColor=#66FFB3;" vertex="1" parent="1">
          <mxGeometry x="4543" y="495.37" width="150" height="59.25" as="geometry" />
        </mxCell>
        <mxCell id="ewS9vyXOPcBX5f5G79W1-21" style="edgeStyle=orthogonalEdgeStyle;rounded=0;orthogonalLoop=1;jettySize=auto;html=1;exitX=1;exitY=0.5;exitDx=0;exitDy=0;entryX=0;entryY=0.5;entryDx=0;entryDy=0;" edge="1" parent="1" source="ewS9vyXOPcBX5f5G79W1-17" target="ewS9vyXOPcBX5f5G79W1-19">
          <mxGeometry relative="1" as="geometry" />
        </mxCell>
        <mxCell id="ewS9vyXOPcBX5f5G79W1-17" value="INPUT&lt;div&gt;&lt;br&gt;&lt;/div&gt;&lt;div&gt;CONFIRM_FALSE&lt;/div&gt;" style="shape=parallelogram;perimeter=parallelogramPerimeter;whiteSpace=wrap;html=1;fixedSize=1;strokeColor=#66FFB3;" vertex="1" parent="1">
          <mxGeometry x="4703" y="495.38" width="150" height="59.25" as="geometry" />
        </mxCell>
        <mxCell id="ewS9vyXOPcBX5f5G79W1-18" value="(Aljon&#39;s Version)" style="text;html=1;align=center;verticalAlign=middle;resizable=0;points=[];autosize=1;strokeColor=none;fillColor=none;" vertex="1" parent="1">
          <mxGeometry x="4898" y="112" width="104" height="26" as="geometry" />
        </mxCell>
        <mxCell id="ewS9vyXOPcBX5f5G79W1-19" value="CONFIRM_FALSE" style="rhombus;whiteSpace=wrap;html=1;" vertex="1" parent="1">
          <mxGeometry x="4928" y="450.01" width="150" height="150" as="geometry" />
        </mxCell>
        <mxCell id="ewS9vyXOPcBX5f5G79W1-23" value="" style="edgeStyle=orthogonalEdgeStyle;rounded=0;orthogonalLoop=1;jettySize=auto;html=1;strokeColor=#66FFB3;" edge="1" parent="1" target="ewS9vyXOPcBX5f5G79W1-24">
          <mxGeometry relative="1" as="geometry">
            <mxPoint x="5003" y="449.65999999999997" as="sourcePoint" />
            <mxPoint x="5003" y="410" as="targetPoint" />
            <Array as="points">
              <mxPoint x="5003" y="425" />
              <mxPoint x="5003" y="425" />
            </Array>
          </mxGeometry>
        </mxCell>
        <mxCell id="ewS9vyXOPcBX5f5G79W1-24" value="" style="shape=waypoint;sketch=0;size=6;pointerEvents=1;points=[];fillColor=none;resizable=0;rotatable=0;perimeter=centerPerimeter;snapToPoint=1;strokeColor=#00FF80;" vertex="1" parent="1">
          <mxGeometry x="4993" y="379.9999999999999" width="20" height="20" as="geometry" />
        </mxCell>
        <mxCell id="ewS9vyXOPcBX5f5G79W1-26" value="" style="shape=waypoint;sketch=0;size=6;pointerEvents=1;points=[];fillColor=#e51400;resizable=0;rotatable=0;perimeter=centerPerimeter;snapToPoint=1;fontColor=#ffffff;strokeColor=#B20000;fontStyle=4" vertex="1" parent="1">
          <mxGeometry x="4993" y="651" width="20" height="20" as="geometry" />
        </mxCell>
        <mxCell id="ewS9vyXOPcBX5f5G79W1-27" value="E" style="edgeStyle=orthogonalEdgeStyle;rounded=0;orthogonalLoop=1;jettySize=auto;html=1;fillColor=#e51400;strokeColor=#B20000;fontStyle=4;exitX=0.5;exitY=1;exitDx=0;exitDy=0;entryX=0.53;entryY=0.083;entryDx=0;entryDy=0;entryPerimeter=0;" edge="1" parent="1" source="ewS9vyXOPcBX5f5G79W1-19" target="ewS9vyXOPcBX5f5G79W1-26">
          <mxGeometry relative="1" as="geometry">
            <mxPoint x="4859" y="636" as="sourcePoint" />
            <mxPoint x="5041" y="636" as="targetPoint" />
          </mxGeometry>
        </mxCell>
        <mxCell id="ewS9vyXOPcBX5f5G79W1-29" value="TRUE" style="edgeStyle=orthogonalEdgeStyle;rounded=0;orthogonalLoop=1;jettySize=auto;html=1;exitX=0.5;exitY=1;exitDx=0;exitDy=0;strokeColor=#66FFB3;" edge="1" parent="1" source="ewS9vyXOPcBX5f5G79W1-12">
          <mxGeometry x="0.0028" relative="1" as="geometry">
            <mxPoint x="4398" y="660" as="targetPoint" />
            <mxPoint as="offset" />
            <mxPoint x="4400" y="605" as="sourcePoint" />
            <Array as="points">
              <mxPoint x="4398" y="620" />
            </Array>
          </mxGeometry>
        </mxCell>
        <mxCell id="ewS9vyXOPcBX5f5G79W1-30" value="OUTPUT&lt;div&gt;&lt;br&gt;&lt;/div&gt;&lt;div&gt;MONEY_MESSAGE&lt;/div&gt;" style="shape=parallelogram;perimeter=parallelogramPerimeter;whiteSpace=wrap;html=1;fixedSize=1;strokeColor=#66FFB3;" vertex="1" parent="1">
          <mxGeometry x="4323" y="657" width="150" height="59.25" as="geometry" />
        </mxCell>
        <mxCell id="ewS9vyXOPcBX5f5G79W1-39" style="edgeStyle=orthogonalEdgeStyle;rounded=0;orthogonalLoop=1;jettySize=auto;html=1;exitX=1;exitY=0.5;exitDx=0;exitDy=0;" edge="1" parent="1" source="ewS9vyXOPcBX5f5G79W1-31">
          <mxGeometry relative="1" as="geometry">
            <mxPoint x="4539.280004882812" y="780.4000000000001" as="targetPoint" />
          </mxGeometry>
        </mxCell>
        <mxCell id="ewS9vyXOPcBX5f5G79W1-31" value="INPUT&lt;div&gt;&lt;br&gt;&lt;/div&gt;&lt;div&gt;CONFIRM_TRUE&lt;/div&gt;" style="shape=parallelogram;perimeter=parallelogramPerimeter;whiteSpace=wrap;html=1;fixedSize=1;strokeColor=#66FFB3;" vertex="1" parent="1">
          <mxGeometry x="4323" y="750.75" width="150" height="59.25" as="geometry" />
        </mxCell>
        <mxCell id="ewS9vyXOPcBX5f5G79W1-32" value="" style="edgeStyle=orthogonalEdgeStyle;rounded=0;orthogonalLoop=1;jettySize=auto;html=1;strokeColor=#66FFB3;exitX=0.5;exitY=1;exitDx=0;exitDy=0;entryX=0.5;entryY=0;entryDx=0;entryDy=0;" edge="1" parent="1" source="ewS9vyXOPcBX5f5G79W1-30" target="ewS9vyXOPcBX5f5G79W1-31">
          <mxGeometry relative="1" as="geometry">
            <mxPoint x="4401" y="727" as="sourcePoint" />
            <mxPoint x="4431" y="727" as="targetPoint" />
          </mxGeometry>
        </mxCell>
        <mxCell id="ewS9vyXOPcBX5f5G79W1-40" value="CONFIRM_TRUE" style="rhombus;whiteSpace=wrap;html=1;" vertex="1" parent="1">
          <mxGeometry x="4543" y="705.38" width="150" height="150" as="geometry" />
        </mxCell>
        <mxCell id="ewS9vyXOPcBX5f5G79W1-41" value="" style="edgeStyle=orthogonalEdgeStyle;rounded=0;orthogonalLoop=1;jettySize=auto;html=1;strokeColor=#66FFB3;exitX=1;exitY=0.5;exitDx=0;exitDy=0;" edge="1" parent="1" source="ewS9vyXOPcBX5f5G79W1-40">
          <mxGeometry relative="1" as="geometry">
            <mxPoint x="4714" y="765.04" as="sourcePoint" />
            <mxPoint x="4747" y="780" as="targetPoint" />
            <Array as="points">
              <mxPoint x="4714" y="780" />
            </Array>
          </mxGeometry>
        </mxCell>
        <mxCell id="ewS9vyXOPcBX5f5G79W1-42" value="" style="shape=waypoint;sketch=0;size=6;pointerEvents=1;points=[];fillColor=none;resizable=0;rotatable=0;perimeter=centerPerimeter;snapToPoint=1;strokeColor=#00FF80;" vertex="1" parent="1">
          <mxGeometry x="4739" y="770.3799999999999" width="20" height="20" as="geometry" />
        </mxCell>
        <mxCell id="ewS9vyXOPcBX5f5G79W1-43" value="E" style="edgeStyle=orthogonalEdgeStyle;rounded=0;orthogonalLoop=1;jettySize=auto;html=1;fillColor=#e51400;strokeColor=#B20000;fontStyle=4;exitX=0.5;exitY=1;exitDx=0;exitDy=0;entryX=0.53;entryY=0.083;entryDx=0;entryDy=0;entryPerimeter=0;" edge="1" parent="1">
          <mxGeometry relative="1" as="geometry">
            <mxPoint x="4617.8" y="855.38" as="sourcePoint" />
            <mxPoint x="4617.8" y="916.38" as="targetPoint" />
          </mxGeometry>
        </mxCell>
      </root>
    </mxGraphModel>
  </diagram>
</mxfile>
